<svg version="1.1" xmlns="http://www.w3.org/2000/svg" viewBox="0 0 122.34588133903367 151.7431025747137" width="122.34588133903367" height="151.7431025747137">
  <!-- svg-source:excalidraw -->
  
  <defs>
    <style class="style-fonts">
      @font-face {
        font-family: "Virgil";
        src: url("https://excalidraw.com/Virgil.woff2");
      }
      @font-face {
        font-family: "Cascadia";
        src: url("https://excalidraw.com/Cascadia.woff2");
      }
    </style>
  </defs>
  <rect x="0" y="0" width="122.34588133903367" height="151.7431025747137" fill="#ffffff"></rect><g transform="translate(10 49.196294980906714) rotate(0 51.172940669516834 46.273403796903494)" stroke="none"><path fill="#e66000" d="M 1.76,-0.88 Q 1.76,-0.88 2.63,1.02 3.49,2.94 4.46,4.24 5.43,5.54 6.05,6.97 6.67,8.40 7.41,10.11 8.15,11.83 8.61,12.97 9.07,14.11 9.55,15.08 10.04,16.05 10.56,17.89 11.08,19.73 11.53,21.75 11.99,23.78 12.44,25.91 12.90,28.03 13.20,29.63 13.50,31.23 13.64,32.89 13.79,34.55 14.14,36.01 14.49,37.47 14.86,39.75 15.24,42.03 15.39,44.67 15.53,47.31 15.57,49.67 15.60,52.03 15.60,54.29 15.60,56.54 15.65,58.44 15.69,60.34 15.97,62.61 16.25,64.89 16.36,67.52 16.48,70.15 16.52,73.46 16.56,76.77 16.88,80.31 17.20,83.84 17.40,85.67 17.59,87.50 18.30,88.77 19.02,90.05 20.80,89.20 22.58,88.35 24.16,88.01 25.74,87.66 27.29,86.93 28.85,86.19 30.26,85.94 31.66,85.69 32.83,85.58 33.99,85.48 36.12,85.65 38.24,85.82 40.39,85.96 42.55,86.09 44.40,86.13 46.25,86.16 47.98,86.17 49.70,86.17 51.51,86.02 53.31,85.88 55.16,85.79 57.00,85.70 58.77,85.76 60.54,85.82 62.99,86.28 65.45,86.74 68.02,87.30 70.59,87.85 71.96,87.98 73.33,88.10 74.82,85.55 76.31,83.01 76.71,80.13 77.10,77.26 77.96,73.98 78.82,70.70 79.19,67.90 79.55,65.10 80.05,62.26 80.55,59.42 81.08,55.75 81.62,52.08 82.17,48.92 82.72,45.76 84.24,41.20 85.76,36.64 86.39,34.17 87.01,31.70 87.55,29.93 88.09,28.15 88.62,26.14 89.16,24.12 90.16,22.65 91.17,21.18 91.65,20.06 92.13,18.94 92.99,17.96 93.84,16.99 94.48,15.22 95.11,13.46 95.58,12.30 96.05,11.14 96.57,10.07 97.09,9.01 97.95,7.86 98.81,6.71 99.02,3.93 99.23,1.16 99.47,0.69 99.71,0.21 100.10,-0.14 100.48,-0.51 100.96,-0.74 101.43,-0.97 101.96,-1.03 102.49,-1.09 103.01,-0.98 103.52,-0.87 103.98,-0.60 104.44,-0.33 104.78,0.06 105.13,0.46 105.33,0.95 105.53,1.44 105.57,1.97 105.60,2.50 105.46,3.01 105.33,3.52 105.03,3.96 104.74,4.40 104.32,4.73 103.90,5.05 103.40,5.23 102.90,5.40 102.37,5.41 101.84,5.41 101.34,5.25 100.83,5.08 100.41,4.76 99.98,4.45 99.68,4.01 99.38,3.58 99.23,3.07 99.09,2.56 99.11,2.03 99.13,1.50 99.33,1.00 99.52,0.51 99.86,0.10 100.20,-0.29 100.65,-0.57 101.10,-0.85 101.62,-0.97 102.13,-1.09 102.66,-1.03 103.19,-0.98 103.67,-0.76 104.15,-0.55 104.54,-0.19 104.93,0.17 105.18,0.63 105.44,1.10 105.53,1.62 105.62,2.14 105.54,2.67 105.46,3.19 105.46,3.19 105.46,3.19 104.97,4.20 104.48,5.21 104.39,6.45 104.31,7.69 103.42,9.25 102.54,10.80 102.03,12.29 101.52,13.77 100.64,15.15 99.76,16.52 99.25,17.51 98.75,18.49 98.17,19.44 97.59,20.39 96.54,21.39 95.49,22.40 94.48,23.74 93.47,25.08 92.57,26.03 91.68,26.98 91.30,28.05 90.93,29.12 90.31,30.74 89.69,32.37 89.05,34.94 88.42,37.52 86.99,41.88 85.56,46.25 85.06,49.36 84.55,52.48 84.08,56.20 83.60,59.91 83.20,62.68 82.80,65.46 82.51,68.48 82.23,71.51 81.57,74.59 80.91,77.66 80.66,80.89 80.42,84.12 79.73,87.13 79.04,90.14 78.26,90.98 77.48,91.82 75.13,91.94 72.79,92.07 71.36,91.81 69.94,91.56 67.41,91.22 64.89,90.88 62.71,90.72 60.53,90.55 58.77,90.61 57.00,90.67 55.16,90.58 53.31,90.49 51.51,90.35 49.70,90.21 47.98,90.21 46.25,90.21 44.40,90.25 42.55,90.28 40.40,90.42 38.25,90.56 35.10,90.67 31.96,90.78 30.44,90.81 28.93,90.83 27.73,91.27 26.53,91.71 25.18,91.92 23.83,92.13 20.58,92.88 17.34,93.63 16.33,91.79 15.32,89.94 14.98,88.87 14.64,87.80 14.55,85.95 14.45,84.10 14.10,80.46 13.74,76.82 13.67,73.57 13.60,70.31 13.44,67.80 13.29,65.29 12.93,62.82 12.57,60.36 12.58,58.48 12.59,56.59 12.52,54.37 12.45,52.14 12.31,49.86 12.18,47.57 11.93,45.17 11.69,42.76 11.14,40.54 10.59,38.33 10.23,36.56 9.87,34.80 9.82,33.29 9.76,31.79 9.61,30.35 9.45,28.92 8.83,26.86 8.22,24.79 7.61,22.86 7.01,20.94 6.51,19.35 6.01,17.76 5.35,15.58 4.69,13.40 3.80,11.56 2.92,9.73 2.67,8.69 2.42,7.66 1.33,6.11 0.25,4.57 -0.75,2.72 -1.76,0.88 -1.84,0.65 -1.92,0.43 -1.95,0.19 -1.97,-0.03 -1.94,-0.27 -1.90,-0.51 -1.82,-0.73 -1.73,-0.95 -1.59,-1.14 -1.45,-1.33 -1.27,-1.49 -1.09,-1.64 -0.87,-1.75 -0.66,-1.86 -0.43,-1.91 -0.19,-1.96 0.03,-1.96 0.27,-1.95 0.50,-1.89 0.73,-1.83 0.94,-1.71 1.15,-1.60 1.32,-1.44 1.50,-1.28 1.63,-1.08 1.76,-0.88 1.76,-0.88 L 1.76,-0.88 Z"></path></g><g transform="translate(21.97664568861046 37.21964929229671) rotate(0 39.740687966752375 -1.0887859716917774)" stroke="none"><path fill="#e66000" d="M -0.86,-2.31 Q -0.86,-2.31 1.68,-3.11 4.24,-3.91 5.91,-4.57 7.57,-5.23 8.69,-5.63 9.80,-6.03 11.01,-6.67 12.21,-7.31 13.71,-8.21 15.21,-9.11 16.75,-9.23 18.30,-9.36 20.24,-9.23 22.18,-9.10 23.73,-9.32 25.28,-9.54 26.75,-9.70 28.21,-9.86 30.13,-9.85 32.05,-9.84 35.77,-9.42 39.48,-8.99 41.91,-8.78 44.35,-8.56 46.31,-8.47 48.28,-8.38 49.94,-8.08 51.59,-7.78 56.17,-6.28 60.76,-4.77 64.38,-3.53 68.01,-2.29 70.51,-1.42 73.00,-0.55 74.51,0.07 76.02,0.70 77.07,1.28 78.13,1.85 79.47,2.83 80.80,3.81 81.03,4.06 81.25,4.32 81.38,4.63 81.52,4.94 81.54,5.28 81.57,5.62 81.48,5.95 81.40,6.28 81.22,6.56 81.03,6.85 80.77,7.06 80.50,7.27 80.18,7.39 79.86,7.50 79.52,7.51 79.18,7.52 78.86,7.42 78.53,7.31 78.26,7.11 77.98,6.91 77.79,6.64 77.59,6.36 77.49,6.04 77.39,5.71 77.41,5.37 77.42,5.03 77.54,4.71 77.65,4.40 77.87,4.13 78.08,3.87 78.37,3.69 78.66,3.51 78.99,3.43 79.32,3.35 79.66,3.37 79.99,3.40 80.31,3.54 80.62,3.68 80.87,3.90 81.12,4.13 81.29,4.43 81.45,4.73 81.51,5.06 81.58,5.39 81.53,5.73 81.48,6.07 81.33,6.37 81.17,6.67 80.93,6.91 80.69,7.15 80.39,7.30 80.08,7.45 79.74,7.49 79.41,7.54 79.07,7.47 78.74,7.41 78.45,7.24 78.15,7.07 78.15,7.07 78.15,7.07 76.33,5.47 74.50,3.87 73.25,3.18 72.00,2.49 69.48,1.73 66.96,0.97 63.21,-0.15 59.46,-1.28 55.10,-2.68 50.75,-4.09 49.46,-4.46 48.18,-4.83 46.17,-4.85 44.16,-4.86 41.66,-4.89 39.15,-4.91 35.67,-5.07 32.19,-5.23 30.44,-5.10 28.69,-4.98 27.41,-4.87 26.13,-4.76 24.17,-4.35 22.20,-3.94 20.29,-3.80 18.38,-3.66 17.02,-4.00 15.66,-4.34 14.39,-3.54 13.13,-2.75 11.16,-2.06 9.20,-1.37 7.48,-0.60 5.77,0.15 3.32,1.23 0.86,2.31 0.57,2.38 0.28,2.45 -0.00,2.45 -0.30,2.45 -0.59,2.38 -0.88,2.31 -1.15,2.17 -1.41,2.03 -1.63,1.83 -1.85,1.63 -2.02,1.38 -2.19,1.14 -2.30,0.86 -2.40,0.58 -2.44,0.28 -2.47,-0.00 -2.43,-0.30 -2.40,-0.60 -2.29,-0.88 -2.18,-1.15 -2.01,-1.40 -1.84,-1.64 -1.62,-1.84 -1.39,-2.04 -1.13,-2.18 -0.86,-2.31 -0.86,-2.31 L -0.86,-2.31 Z"></path></g><g transform="translate(53.55143886767382 25.243003603685793) rotate(0 16.331789575377798 -3.810750900921448)" stroke="none"><path fill="#e66000" d="M -2.27,-0.25 Q -2.27,-0.25 -1.83,-3.05 -1.39,-5.85 -1.24,-7.64 -1.09,-9.42 -1.10,-10.49 -1.12,-11.56 -0.71,-13.54 -0.30,-15.52 0.51,-16.25 1.34,-16.99 2.88,-17.41 4.42,-17.83 8.30,-17.37 12.18,-16.90 16.18,-16.65 20.18,-16.40 23.25,-15.92 26.31,-15.45 28.07,-14.97 29.82,-14.49 30.83,-13.89 31.85,-13.30 33.13,-11.90 34.42,-10.49 34.79,-8.67 35.15,-6.84 34.57,-4.90 33.99,-2.96 33.20,-1.04 32.40,0.88 32.06,2.72 31.72,4.56 31.54,6.23 31.37,7.90 31.24,8.39 31.11,8.87 30.84,9.28 30.57,9.70 30.17,10.01 29.78,10.31 29.31,10.48 28.85,10.64 28.35,10.65 27.85,10.66 27.38,10.51 26.90,10.35 26.50,10.06 26.10,9.76 25.82,9.36 25.53,8.95 25.39,8.47 25.25,7.99 25.27,7.50 25.29,7.00 25.47,6.53 25.65,6.07 25.96,5.69 26.28,5.30 26.70,5.04 27.12,4.78 27.61,4.66 28.09,4.55 28.59,4.60 29.08,4.64 29.54,4.84 29.99,5.05 30.36,5.38 30.72,5.72 30.96,6.16 31.20,6.59 31.29,7.08 31.38,7.57 31.30,8.06 31.23,8.56 31.00,9.00 30.78,9.44 30.42,9.79 30.07,10.14 29.62,10.35 29.17,10.57 28.67,10.63 28.18,10.69 27.69,10.59 27.21,10.49 26.78,10.24 26.35,9.99 26.02,9.61 25.69,9.24 25.50,8.78 25.31,8.32 25.28,7.82 25.24,7.33 25.24,7.33 25.24,7.33 25.84,4.15 26.45,0.98 26.98,-0.74 27.50,-2.46 28.10,-3.51 28.70,-4.56 29.37,-5.56 30.03,-6.57 30.14,-7.77 30.25,-8.96 29.45,-9.90 28.65,-10.84 27.25,-11.30 25.85,-11.75 22.95,-12.01 20.06,-12.27 15.93,-12.26 11.81,-12.26 7.47,-11.80 3.14,-11.34 3.00,-10.24 2.87,-9.13 2.76,-7.27 2.64,-5.40 2.46,-2.57 2.27,0.25 2.21,0.52 2.15,0.79 2.02,1.03 1.89,1.28 1.71,1.49 1.53,1.69 1.31,1.85 1.08,2.01 0.82,2.11 0.57,2.21 0.29,2.25 0.02,2.29 -0.25,2.26 -0.52,2.23 -0.78,2.13 -1.04,2.03 -1.27,1.88 -1.50,1.73 -1.68,1.52 -1.87,1.32 -2.00,1.07 -2.13,0.83 -2.20,0.56 -2.27,0.29 -2.27,0.02 -2.27,-0.25 -2.27,-0.25 L -2.27,-0.25 Z"></path></g><g transform="translate(15.443929858459342 47.01872303752316) rotate(0 47.90658275444116 4.899536872613226)" stroke="none"><path fill="#e66000" d="M 0.40,-2.40 Q 0.40,-2.40 2.26,-2.00 4.12,-1.60 5.95,-1.09 7.77,-0.59 9.71,-0.46 11.65,-0.33 14.58,0.05 17.51,0.44 18.59,0.57 19.67,0.69 20.64,1.25 21.61,1.80 24.41,2.10 27.20,2.41 28.49,2.54 29.77,2.67 30.92,2.70 32.08,2.74 33.60,2.71 35.12,2.69 36.29,3.12 37.47,3.55 38.49,3.93 39.51,4.31 40.67,4.45 41.84,4.59 44.06,5.01 46.28,5.43 47.97,5.66 49.65,5.90 50.74,5.94 51.83,5.97 53.54,5.94 55.25,5.91 56.67,6.27 58.08,6.64 59.61,6.73 61.14,6.82 63.03,6.83 64.92,6.84 67.05,6.84 69.18,6.84 70.26,6.83 71.34,6.83 72.67,6.81 74.00,6.79 75.49,6.03 76.97,5.28 78.69,4.91 80.41,4.54 82.50,4.43 84.60,4.32 85.87,4.16 87.15,4.01 88.69,3.87 90.22,3.72 92.52,2.60 94.81,1.48 95.30,1.40 95.78,1.32 96.26,1.39 96.75,1.47 97.19,1.69 97.62,1.92 97.96,2.27 98.30,2.62 98.51,3.07 98.72,3.51 98.78,4.00 98.84,4.49 98.74,4.97 98.64,5.45 98.39,5.87 98.14,6.29 97.77,6.61 97.40,6.94 96.94,7.12 96.49,7.31 96.00,7.34 95.51,7.37 95.03,7.24 94.56,7.12 94.15,6.84 93.74,6.57 93.44,6.18 93.14,5.80 92.98,5.33 92.82,4.87 92.81,4.38 92.81,3.89 92.96,3.42 93.11,2.95 93.41,2.56 93.70,2.17 94.10,1.89 94.51,1.61 94.98,1.47 95.45,1.34 95.94,1.36 96.43,1.38 96.89,1.56 97.35,1.74 97.73,2.05 98.10,2.36 98.36,2.78 98.62,3.20 98.73,3.68 98.84,4.16 98.79,4.65 98.74,5.13 98.54,5.58 98.34,6.03 98.00,6.39 97.67,6.75 97.24,6.98 96.80,7.22 96.80,7.22 96.80,7.22 94.92,7.86 93.04,8.51 91.88,8.96 90.71,9.41 89.25,9.44 87.80,9.48 86.63,9.61 85.47,9.75 82.44,10.40 79.42,11.05 78.10,11.48 76.78,11.90 75.56,12.35 74.34,12.80 72.84,12.78 71.34,12.75 70.25,12.75 69.17,12.75 68.09,12.74 67.00,12.74 64.88,12.71 62.75,12.68 60.89,12.55 59.04,12.41 57.08,11.94 55.13,11.47 53.34,11.37 51.55,11.27 50.41,11.18 49.27,11.10 47.17,11.06 45.07,11.02 43.10,10.71 41.12,10.41 39.33,10.00 37.53,9.60 36.14,8.88 34.76,8.16 33.29,8.06 31.82,7.96 30.54,7.88 29.26,7.80 27.77,7.66 26.28,7.51 24.64,7.31 23.00,7.11 21.62,6.88 20.24,6.65 18.43,5.88 16.62,5.11 15.09,4.86 13.55,4.61 12.42,4.53 11.29,4.45 10.11,4.30 8.92,4.16 7.80,3.89 6.68,3.62 5.03,3.24 3.38,2.85 1.49,2.62 -0.40,2.40 -0.68,2.31 -0.96,2.23 -1.21,2.08 -1.46,1.93 -1.68,1.73 -1.89,1.53 -2.04,1.28 -2.20,1.03 -2.29,0.75 -2.38,0.47 -2.40,0.18 -2.43,-0.10 -2.38,-0.39 -2.33,-0.68 -2.21,-0.95 -2.10,-1.22 -1.92,-1.45 -1.74,-1.69 -1.52,-1.87 -1.29,-2.06 -1.02,-2.18 -0.76,-2.31 -0.47,-2.36 -0.18,-2.42 0.10,-2.41 0.40,-2.40 0.40,-2.40 L 0.40,-2.40 Z"></path></g></svg>