<svg version="1.1" xmlns="http://www.w3.org/2000/svg" viewBox="0 0 106.90479676191853 119.09309110923732" width="106.90479676191853" height="119.09309110923732">
  <!-- svg-source:excalidraw -->
  
  <defs>
    <style class="style-fonts">
      @font-face {
        font-family: "Virgil";
        src: url("https://excalidraw.com/Virgil.woff2");
      }
      @font-face {
        font-family: "Cascadia";
        src: url("https://excalidraw.com/Cascadia.woff2");
      }
    </style>
  </defs>
  <rect x="0" y="0" width="106.90479676191853" height="119.09309110923732" fill="#ffffff"></rect><g transform="translate(16.199721643943576 61.61319622280553) rotate(335.8468816198036 36.56679578760895 -17.31431319978674)" stroke="none"><path fill="#e66000" d="M -0.81,-1.36 Q -0.81,-1.36 0.64,-2.29 2.10,-3.22 4.80,-4.62 7.49,-6.01 11.34,-7.79 15.19,-9.57 19.12,-11.35 23.06,-13.13 26.60,-14.62 30.15,-16.12 33.39,-17.36 36.62,-18.59 39.74,-19.98 42.85,-21.37 47.01,-23.30 51.16,-25.23 54.92,-27.08 58.69,-28.94 61.55,-30.39 64.41,-31.84 66.07,-32.68 67.73,-33.51 68.64,-34.14 69.54,-34.77 70.93,-35.54 72.32,-36.31 72.61,-36.39 72.90,-36.48 73.20,-36.47 73.51,-36.45 73.79,-36.35 74.07,-36.24 74.30,-36.04 74.54,-35.85 74.70,-35.60 74.86,-35.34 74.92,-35.04 74.99,-34.75 74.96,-34.45 74.94,-34.15 74.81,-33.87 74.69,-33.60 74.48,-33.37 74.28,-33.15 74.01,-33.01 73.75,-32.86 73.45,-32.81 73.15,-32.75 72.85,-32.80 72.56,-32.84 72.29,-32.98 72.02,-33.12 71.81,-33.34 71.60,-33.55 71.47,-33.83 71.33,-34.10 71.30,-34.40 71.26,-34.70 71.32,-35.00 71.38,-35.29 71.54,-35.55 71.69,-35.81 71.92,-36.01 72.14,-36.21 72.42,-36.33 72.70,-36.44 73.00,-36.46 73.31,-36.48 73.60,-36.41 73.89,-36.33 74.14,-36.16 74.40,-36.00 74.58,-35.76 74.77,-35.52 74.87,-35.24 74.97,-34.95 74.97,-34.65 74.98,-34.35 74.88,-34.06 74.79,-33.77 74.61,-33.53 74.43,-33.28 74.18,-33.11 73.94,-32.94 73.94,-32.94 73.94,-32.94 72.55,-32.38 71.16,-31.81 70.06,-31.35 68.95,-30.88 67.29,-30.17 65.62,-29.47 62.75,-28.00 59.87,-26.53 56.09,-24.65 52.30,-22.78 48.14,-20.83 43.97,-18.88 40.80,-17.44 37.62,-16.00 34.44,-14.76 31.27,-13.52 27.77,-12.00 24.27,-10.48 20.38,-8.66 16.48,-6.83 12.73,-5.03 8.99,-3.22 6.41,-1.78 3.83,-0.33 2.32,0.51 0.81,1.36 0.64,1.44 0.46,1.52 0.27,1.55 0.09,1.59 -0.10,1.57 -0.29,1.56 -0.47,1.50 -0.65,1.45 -0.82,1.35 -0.98,1.25 -1.12,1.11 -1.25,0.97 -1.35,0.81 -1.45,0.64 -1.51,0.46 -1.56,0.28 -1.57,0.09 -1.58,-0.10 -1.55,-0.29 -1.51,-0.47 -1.43,-0.65 -1.36,-0.82 -1.24,-0.97 -1.12,-1.13 -0.97,-1.24 -0.81,-1.36 -0.81,-1.36 L -0.81,-1.36 Z"></path></g><g transform="translate(32.39937724752235 66.08860806915709) rotate(335.8468816198036 36.696007080144454 -15.376143811750808)" stroke="none"><path fill="#e66000" d="M -0.48,-1.48 Q -0.48,-1.48 2.49,-2.41 5.48,-3.35 8.62,-4.26 11.77,-5.17 14.88,-6.07 18.00,-6.97 20.00,-7.77 22.01,-8.57 24.20,-9.57 26.38,-10.57 28.65,-11.67 30.93,-12.76 33.12,-13.68 35.30,-14.61 37.34,-15.44 39.38,-16.27 41.51,-17.15 43.64,-18.02 46.34,-19.06 49.04,-20.11 50.82,-20.88 52.61,-21.64 53.62,-22.10 54.63,-22.55 55.64,-23.24 56.65,-23.93 57.71,-24.74 58.78,-25.55 59.77,-26.17 60.75,-26.79 62.24,-27.65 63.72,-28.51 64.96,-29.31 66.20,-30.12 67.64,-30.95 69.08,-31.79 70.81,-32.98 72.54,-34.17 73.03,-34.27 73.52,-34.38 74.02,-34.31 74.52,-34.25 74.98,-34.03 75.43,-33.81 75.79,-33.46 76.15,-33.11 76.38,-32.66 76.61,-32.21 76.68,-31.72 76.76,-31.22 76.67,-30.72 76.58,-30.23 76.34,-29.78 76.10,-29.34 75.72,-29.00 75.35,-28.66 74.89,-28.46 74.43,-28.25 73.93,-28.20 73.43,-28.16 72.94,-28.27 72.45,-28.39 72.02,-28.66 71.59,-28.92 71.27,-29.31 70.95,-29.70 70.77,-30.17 70.59,-30.64 70.58,-31.14 70.56,-31.65 70.70,-32.13 70.84,-32.61 71.13,-33.03 71.42,-33.44 71.82,-33.74 72.23,-34.04 72.71,-34.19 73.19,-34.34 73.69,-34.34 74.20,-34.33 74.67,-34.16 75.15,-33.99 75.54,-33.68 75.94,-33.37 76.21,-32.95 76.49,-32.53 76.62,-32.04 76.75,-31.55 76.71,-31.05 76.68,-30.55 76.48,-30.08 76.29,-29.62 75.96,-29.24 75.62,-28.86 75.19,-28.61 74.75,-28.35 74.75,-28.35 74.75,-28.35 73.46,-27.46 72.16,-26.56 71.12,-26.09 70.07,-25.63 69.08,-25.19 68.09,-24.76 67.11,-24.25 66.14,-23.74 64.65,-23.08 63.16,-22.41 61.55,-21.77 59.95,-21.13 58.38,-20.43 56.82,-19.73 55.24,-19.39 53.67,-19.06 51.83,-18.35 49.99,-17.64 47.32,-16.60 44.65,-15.56 42.52,-14.69 40.40,-13.81 38.37,-12.97 36.35,-12.14 34.23,-11.23 32.10,-10.33 29.82,-9.21 27.53,-8.10 25.29,-7.05 23.05,-6.01 20.92,-5.14 18.80,-4.27 15.69,-3.34 12.59,-2.40 9.50,-1.45 6.40,-0.51 3.44,0.48 0.48,1.48 0.29,1.52 0.11,1.55 -0.07,1.54 -0.26,1.53 -0.44,1.48 -0.62,1.43 -0.78,1.33 -0.94,1.24 -1.08,1.10 -1.21,0.97 -1.31,0.81 -1.41,0.65 -1.47,0.47 -1.53,0.30 -1.54,0.11 -1.56,-0.07 -1.52,-0.26 -1.49,-0.44 -1.42,-0.61 -1.34,-0.79 -1.23,-0.94 -1.11,-1.09 -0.97,-1.20 -0.82,-1.32 -0.65,-1.40 -0.48,-1.48 -0.48,-1.48 L -0.48,-1.48 Z"></path></g><g transform="translate(81.94022524501088 9.822892485231932) rotate(335.8468816198036 6.7189872118574385 6.202142041714524)" stroke="none"><path d="M-1.75 1.45 L-0.2 3.81 L1.55 2.71 L1.11 5.13 L2.59 8.07 L3.48 7.65 L3.42 9.63 L2.82 9.75 L2.84 10.61 L5.35 11.35 L6.02 11.32 L4.86 10.83 L7.11 13.26 L8.18 13.29 L7.56 12.57 L6.84 12.22 L11.35 14.17 L10.98 14.42 L10.12 13.91 L10.41 11.33 L11.49 12.15 L12.37 11.19 L10.47 12.94 L11.27 11.15 L14.43 11.57 L11.84 12.34 L12.97 11.52 L13.6 9.63 L14 11.27 L12.09 10.11 L13.19 10.5 L14.64 8.51 L11.76 8.81 L12.08 6.4 L11.72 8.42 L12.09 6.03 L11.85 5.65 L12.81 3.81 L9.92 5.26 L12.95 3.18 L12.58 5.32 L10.73 2.75 L10.66 2.3 L8.18 3.92 L10.82 1.18 L7.07 2.23 L6.74 2.38 L8.48 0.24 L7.16 -1.14 L7.3 -0.29 L6.56 1.68 L7.13 0.12 L6.45 -1.29 L5.38 0.17 L7.39 0.73 L6.52 -2.47 L3.96 -0.7 L1.97 0.34 L4.33 1.14 L2.86 -1.06 L-0.14 0.24 L2.62 -0.59 L-0.75 -0.74 L-0.84 -2.45 L0.48 0.13" stroke="none" stroke-width="0" fill="#ced4da" fill-rule="evenodd"></path><path fill="#e66000" d="M 2.47,-0.68 Q 2.47,-0.68 2.84,0.64 3.21,1.98 3.92,3.50 4.62,5.02 5.44,6.33 6.26,7.64 7.05,8.53 7.83,9.42 8.95,9.54 10.06,9.66 9.59,8.69 9.11,7.71 8.28,6.65 7.46,5.59 6.72,4.63 5.99,3.67 4.72,3.43 3.45,3.18 2.75,3.13 2.05,3.07 1.50,3.32 0.96,3.57 0.36,3.63 -0.23,3.69 -0.81,3.56 -1.39,3.42 -1.90,3.11 -2.41,2.80 -2.80,2.34 -3.18,1.88 -3.40,1.32 -3.62,0.76 -3.64,0.16 -3.67,-0.42 -3.51,-1.00 -3.34,-1.58 -3.00,-2.07 -2.66,-2.56 -2.18,-2.92 -1.70,-3.28 -1.13,-3.47 -0.56,-3.65 0.02,-3.65 0.62,-3.64 1.19,-3.45 1.76,-3.25 2.23,-2.88 2.70,-2.52 3.03,-2.02 3.37,-1.52 3.52,-0.94 3.68,-0.36 3.64,0.22 3.60,0.82 3.38,1.37 3.15,1.93 2.76,2.38 2.37,2.84 1.85,3.14 1.34,3.44 0.75,3.57 0.16,3.69 -0.42,3.62 -1.01,3.55 -1.56,3.30 -2.10,3.04 -2.53,2.63 -2.96,2.21 -3.24,1.68 -3.51,1.15 -3.60,0.56 -3.70,-0.03 -3.59,-0.62 -3.49,-1.21 -3.21,-1.73 -2.92,-2.26 -2.48,-2.67 -2.05,-3.08 -2.05,-3.08 -2.05,-3.07 1.00,-3.63 4.05,-4.19 5.29,-4.15 6.53,-4.11 7.70,-3.69 8.87,-3.28 10.14,-2.21 11.40,-1.14 12.34,0.14 13.28,1.42 14.00,2.64 14.71,3.85 15.42,5.33 16.13,6.82 16.51,8.29 16.89,9.77 16.74,11.12 16.59,12.47 15.92,13.52 15.25,14.57 14.08,15.21 12.90,15.84 11.34,15.99 9.78,16.14 8.70,15.89 7.62,15.65 5.99,14.93 4.36,14.21 3.63,13.33 2.89,12.46 2.12,11.48 1.35,10.49 0.57,8.98 -0.20,7.46 -0.96,5.41 -1.73,3.36 -2.10,2.02 -2.47,0.68 -2.52,0.38 -2.57,0.07 -2.54,-0.23 -2.51,-0.54 -2.41,-0.83 -2.31,-1.12 -2.14,-1.38 -1.97,-1.64 -1.74,-1.86 -1.52,-2.07 -1.25,-2.22 -0.98,-2.37 -0.68,-2.46 -0.38,-2.54 -0.07,-2.55 0.23,-2.56 0.53,-2.49 0.84,-2.43 1.12,-2.29 1.39,-2.15 1.63,-1.96 1.87,-1.76 2.05,-1.51 2.24,-1.26 2.36,-0.97 2.47,-0.68 2.47,-0.68 L 2.47,-0.68 Z"></path></g><g transform="translate(26.29473918587746 72.59868904710856) rotate(335.8468816198036 5.843608462391558 4.934602701575386)" stroke="none"><path fill="#e66000" d="M 1.14,-2.28 Q 1.14,-2.28 2.20,-1.78 3.25,-1.28 4.62,-0.92 5.98,-0.55 7.09,-0.16 8.19,0.22 9.52,1.16 10.85,2.09 11.65,2.91 12.44,3.72 13.72,6.70 15.00,9.68 14.94,10.22 14.88,10.75 14.66,11.24 14.43,11.73 14.06,12.12 13.69,12.51 13.22,12.76 12.74,13.01 12.21,13.10 11.68,13.19 11.15,13.10 10.62,13.01 10.15,12.76 9.67,12.51 9.30,12.12 8.93,11.73 8.71,11.24 8.48,10.75 8.42,10.22 8.36,9.68 8.48,9.16 8.60,8.63 8.87,8.17 9.15,7.71 9.56,7.37 9.97,7.02 10.47,6.82 10.97,6.62 11.50,6.59 12.04,6.56 12.56,6.70 13.08,6.85 13.52,7.15 13.97,7.45 14.29,7.88 14.62,8.31 14.79,8.82 14.96,9.33 14.96,9.86 14.96,10.40 14.79,10.91 14.62,11.42 14.29,11.85 13.97,12.28 13.52,12.58 13.08,12.88 12.56,13.02 12.04,13.17 11.50,13.14 10.97,13.11 10.47,12.91 9.97,12.71 9.56,12.36 9.15,12.02 8.87,11.55 8.60,11.09 8.48,10.57 8.36,10.04 8.36,10.04 8.36,10.04 7.73,8.74 7.09,7.43 6.12,6.38 5.15,5.33 4.05,4.90 2.94,4.46 1.93,3.91 0.92,3.37 -0.10,2.83 -1.14,2.28 -1.40,2.11 -1.65,1.94 -1.86,1.72 -2.07,1.49 -2.22,1.22 -2.37,0.95 -2.45,0.65 -2.53,0.35 -2.54,0.04 -2.54,-0.25 -2.47,-0.55 -2.41,-0.86 -2.27,-1.13 -2.13,-1.41 -1.93,-1.64 -1.73,-1.88 -1.48,-2.06 -1.23,-2.24 -0.94,-2.35 -0.66,-2.47 -0.35,-2.51 -0.05,-2.55 0.25,-2.52 0.56,-2.49 0.85,-2.39 1.14,-2.28 1.14,-2.28 L 1.14,-2.28 Z"></path></g><g transform="translate(29.29664852773476 79.10887715423269) rotate(335.8468816198036 -5.843608462391785 11.427500993121157)" stroke="none"><path fill="#e66000" d="M 2.02,1.34 Q 2.02,1.34 1.10,2.67 0.18,4.00 -0.51,4.97 -1.20,5.94 -2.01,6.82 -2.81,7.70 -3.81,9.11 -4.82,10.51 -6.83,12.26 -8.84,14.00 -10.26,15.07 -11.69,16.13 -13.01,17.08 -14.33,18.02 -15.74,18.94 -17.16,19.86 -18.19,20.67 -19.23,21.48 -20.51,22.33 -21.79,23.18 -22.65,23.86 -23.51,24.55 -23.79,24.69 -24.07,24.83 -24.37,24.90 -24.68,24.97 -24.99,24.96 -25.30,24.96 -25.60,24.88 -25.91,24.80 -26.18,24.65 -26.45,24.50 -26.68,24.28 -26.91,24.07 -27.08,23.81 -27.26,23.55 -27.36,23.26 -27.47,22.97 -27.50,22.66 -27.53,22.35 -27.49,22.04 -27.44,21.73 -27.33,21.44 -27.21,21.15 -27.03,20.89 -26.85,20.64 -26.61,20.44 -26.37,20.24 -25.26,19.62 -24.15,19.01 -22.84,18.50 -21.53,17.98 -19.81,17.45 -18.08,16.92 -16.09,16.56 -14.10,16.21 -12.05,15.97 -10.01,15.74 -8.43,15.24 -6.86,14.73 -5.41,14.18 -3.95,13.62 -2.54,13.24 -1.13,12.85 0.18,12.53 1.49,12.21 2.70,11.73 3.91,11.26 5.09,10.66 6.27,10.06 7.45,9.64 8.64,9.21 10.81,8.30 12.99,7.40 13.45,7.30 13.91,7.21 14.38,7.27 14.85,7.33 15.27,7.53 15.70,7.74 16.04,8.07 16.37,8.40 16.59,8.82 16.80,9.24 16.87,9.71 16.93,10.18 16.85,10.64 16.77,11.10 16.54,11.52 16.31,11.93 15.96,12.25 15.61,12.57 15.18,12.76 14.75,12.95 14.28,12.99 13.81,13.03 13.35,12.92 12.89,12.81 12.49,12.56 12.09,12.31 11.79,11.95 11.49,11.58 11.33,11.14 11.16,10.70 11.14,10.23 11.13,9.76 11.26,9.30 11.40,8.85 11.67,8.47 11.94,8.08 12.32,7.80 12.70,7.52 13.15,7.38 13.60,7.24 14.07,7.25 14.54,7.26 14.99,7.41 15.43,7.57 15.80,7.87 16.17,8.16 16.43,8.55 16.69,8.95 16.81,9.40 16.92,9.86 16.89,10.33 16.86,10.80 16.67,11.24 16.49,11.67 16.18,12.03 15.87,12.38 15.46,12.62 15.05,12.85 15.05,12.85 15.05,12.85 13.31,13.50 11.58,14.15 10.21,14.53 8.84,14.91 7.01,15.49 5.17,16.08 3.81,16.37 2.45,16.66 1.16,16.90 -0.12,17.14 -1.31,17.36 -2.50,17.59 -4.01,18.13 -5.53,18.67 -7.42,19.33 -9.31,19.99 -11.20,20.40 -13.09,20.80 -14.74,21.24 -16.40,21.68 -17.97,22.32 -19.54,22.96 -21.53,23.75 -23.51,24.55 -23.79,24.69 -24.07,24.83 -24.37,24.90 -24.68,24.97 -24.99,24.96 -25.30,24.96 -25.60,24.88 -25.90,24.80 -26.18,24.65 -26.45,24.50 -26.68,24.28 -26.91,24.07 -27.08,23.81 -27.26,23.55 -27.36,23.26 -27.47,22.97 -27.50,22.66 -27.53,22.35 -27.49,22.04 -27.44,21.73 -27.33,21.44 -27.21,21.15 -27.03,20.89 -26.85,20.64 -26.61,20.44 -26.37,20.24 -25.43,19.67 -24.48,19.11 -23.33,18.35 -22.19,17.59 -21.03,16.73 -19.87,15.86 -18.57,14.94 -17.28,14.03 -16.10,13.12 -14.91,12.22 -13.60,11.03 -12.29,9.85 -11.17,8.83 -10.05,7.81 -9.13,6.93 -8.20,6.06 -7.32,5.09 -6.43,4.12 -5.10,2.74 -3.77,1.36 -2.89,0.00 -2.02,-1.34 -1.83,-1.57 -1.64,-1.79 -1.40,-1.96 -1.16,-2.13 -0.89,-2.24 -0.61,-2.34 -0.32,-2.38 -0.03,-2.42 0.25,-2.39 0.54,-2.36 0.81,-2.26 1.09,-2.16 1.33,-2.00 1.58,-1.84 1.77,-1.62 1.97,-1.41 2.11,-1.15 2.25,-0.89 2.33,-0.61 2.40,-0.33 2.41,-0.03 2.41,0.25 2.35,0.53 2.28,0.82 2.15,1.08 2.02,1.34 2.02,1.34 L 2.02,1.34 Z"></path></g><g transform="translate(23.615547249889914 89.56542372523563) rotate(335.8468816198036 1.038863726647378 1.4284376241398604)" stroke="none"><path d="M0.4 0.08 L-0.05 1.98 L1.27 -0.12 L2.85 -0.23 L-0.61 0.57 L-0.11 2.21 L1.24 0.15 L0.7 0.95 L3.56 2.12 L1.61 3.38 L2.54 2.54 L-0.32 1.21 L0.87 3 L3.21 1.67" stroke="none" stroke-width="0" fill="#ced4da" fill-rule="evenodd"></path><path fill="#e66000" d="M 1.42,-1.99 Q 1.42,-1.99 2.69,0.72 3.95,3.44 3.80,3.81 3.64,4.18 3.37,4.48 3.11,4.77 2.76,4.97 2.41,5.17 2.02,5.25 1.63,5.32 1.23,5.27 0.83,5.22 0.47,5.04 0.12,4.86 -0.16,4.58 -0.44,4.30 -0.62,3.94 -0.80,3.58 -0.85,3.19 -0.91,2.79 -0.83,2.40 -0.76,2.01 -0.56,1.66 -0.37,1.31 -0.07,1.04 0.22,0.77 0.58,0.61 0.95,0.45 1.35,0.42 1.75,0.39 2.14,0.48 2.52,0.58 2.86,0.79 3.20,1.01 3.45,1.32 3.70,1.63 3.84,2.01 3.98,2.38 3.99,2.78 4.00,3.18 3.89,3.56 3.77,3.95 3.54,4.27 3.31,4.60 2.98,4.83 2.66,5.06 2.27,5.18 1.89,5.30 1.49,5.29 1.09,5.28 0.72,5.14 0.34,5.01 0.03,4.76 -0.27,4.51 -0.49,4.17 -0.71,3.83 -0.80,3.45 -0.90,3.06 -0.87,2.66 -0.84,2.26 -0.84,2.26 -0.84,2.26 -1.13,2.12 -1.42,1.99 -1.63,1.79 -1.85,1.59 -2.02,1.34 -2.18,1.10 -2.28,0.82 -2.38,0.54 -2.41,0.25 -2.44,-0.03 -2.40,-0.33 -2.36,-0.62 -2.25,-0.89 -2.14,-1.17 -1.97,-1.41 -1.80,-1.65 -1.58,-1.84 -1.35,-2.03 -1.09,-2.16 -0.83,-2.30 -0.54,-2.36 -0.25,-2.43 0.03,-2.42 0.33,-2.42 0.61,-2.34 0.90,-2.27 1.16,-2.13 1.42,-1.98 1.42,-1.99 L 1.42,-1.99 Z"></path></g><g transform="translate(22.091356818864824 89.46511230268152) rotate(335.8468816198036 2.207585419125735 1.6881535558018186)" stroke="none"><path d="M-0.98 -0.62 L0.17 -0.74 L1.95 -0.98 L0.8 1.16 L-0.12 0.03 L2.94 -0.1 L3.81 1.04 L3.53 2.98 L2.54 0.36 L4.94 3.77 L2.12 1.26 L1.92 0.2 L2.91 4.28 L3.98 2.88 L4.07 2.38 L6.38 0.92 L4.76 1.03 L3.93 4.38 L2.92 3.39 L5.72 5.27" stroke="none" stroke-width="0" fill="#ced4da" fill-rule="evenodd"></path><path fill="#e66000" d="M 0.71,-2.38 Q 0.71,-2.38 1.47,-2.20 2.23,-2.02 4.67,0.59 7.10,3.22 7.05,3.65 7.01,4.09 6.83,4.48 6.64,4.88 6.34,5.20 6.05,5.51 5.66,5.72 5.28,5.92 4.85,5.99 4.42,6.07 3.98,6.00 3.55,5.93 3.17,5.72 2.78,5.52 2.48,5.20 2.18,4.89 2.00,4.49 1.81,4.10 1.77,3.66 1.72,3.23 1.81,2.80 1.90,2.38 2.13,2.00 2.35,1.63 2.68,1.35 3.02,1.06 3.42,0.90 3.83,0.74 4.26,0.72 4.70,0.69 5.12,0.81 5.54,0.92 5.90,1.17 6.26,1.41 6.52,1.76 6.79,2.10 6.93,2.52 7.07,2.93 7.07,3.37 7.07,3.80 6.93,4.22 6.79,4.63 6.53,4.98 6.27,5.32 5.91,5.57 5.55,5.82 5.13,5.93 4.71,6.05 4.27,6.03 3.84,6.00 3.43,5.84 3.02,5.68 2.69,5.40 2.36,5.12 2.13,4.75 1.91,4.37 1.81,3.95 1.72,3.52 1.72,3.52 1.72,3.52 1.23,3.22 0.74,2.92 0.01,2.65 -0.71,2.38 -0.99,2.26 -1.26,2.14 -1.50,1.96 -1.74,1.77 -1.92,1.54 -2.11,1.31 -2.24,1.03 -2.36,0.76 -2.42,0.47 -2.48,0.17 -2.46,-0.12 -2.45,-0.42 -2.36,-0.71 -2.28,-0.99 -2.12,-1.25 -1.97,-1.51 -1.76,-1.72 -1.55,-1.94 -1.30,-2.10 -1.04,-2.25 -0.75,-2.35 -0.47,-2.44 -0.17,-2.46 0.12,-2.48 0.41,-2.43 0.71,-2.38 0.71,-2.38 L 0.71,-2.38 Z"></path></g><g transform="translate(24.2483619630043 90.52446164698358) rotate(335.8468816198036 0.3895738974927099 -0.5194318633234616)" stroke="none"><path d="M0 -0.07 L-0.44 1.43 L0.13 0.88 L2.02 -0.82 L0.06 -1.56 L-0.41 -1.05 L2.32 0.6 L-0.39 -1.85" stroke="none" stroke-width="0" fill="#ced4da" fill-rule="evenodd"></path><path fill="#e66000" d="M 2.12,-0.66 Q 2.12,-0.66 2.15,-0.13 2.18,0.40 1.96,0.88 1.74,1.36 1.32,1.69 0.91,2.02 0.38,2.12 -0.13,2.21 -0.64,2.05 -1.14,1.90 -1.52,1.52 -1.90,1.14 -2.05,0.64 -2.21,0.13 -2.12,-0.38 -2.02,-0.91 -1.69,-1.32 -1.36,-1.74 -0.88,-1.96 -0.39,-2.18 0.13,-2.15 0.66,-2.11 1.11,-1.84 1.57,-1.56 1.84,-1.11 L 2.12,-0.66 Z"></path></g><g transform="translate(25.523404847854636 92.9382121435674) rotate(335.8468816198036 -4.41517083825147 2.207585419125735)" stroke="none"><path fill="#e66000" d="M 1.06,2.05 Q 1.06,2.05 -0.85,2.91 -2.77,3.77 -5.11,4.90 -7.45,6.02 -7.75,6.20 -8.04,6.37 -8.37,6.45 -8.71,6.52 -9.05,6.49 -9.39,6.45 -9.70,6.31 -10.01,6.16 -10.26,5.93 -10.51,5.69 -10.67,5.39 -10.83,5.09 -10.89,4.75 -10.94,4.41 -10.89,4.08 -10.83,3.74 -10.67,3.44 -10.51,3.13 -10.26,2.90 -10.02,2.66 -9.71,2.52 -9.39,2.37 -9.05,2.33 -8.71,2.30 -8.38,2.37 -8.05,2.44 -7.75,2.62 -7.46,2.79 -7.24,3.06 -7.01,3.32 -6.89,3.63 -6.76,3.95 -6.74,4.29 -6.72,4.64 -6.81,4.97 -6.90,5.30 -7.09,5.58 -7.29,5.86 -7.56,6.07 -7.83,6.28 -8.16,6.39 -8.48,6.50 -8.82,6.50 -9.16,6.50 -9.49,6.39 -9.81,6.28 -10.09,6.07 -10.36,5.87 -10.55,5.58 -10.74,5.30 -10.84,4.97 -10.93,4.64 -10.91,4.30 -10.89,3.96 -10.77,3.64 -10.64,3.32 -10.42,3.06 -10.20,2.80 -10.20,2.80 -10.20,2.80 -7.44,1.45 -4.68,0.10 -2.87,-0.97 -1.06,-2.05 -0.80,-2.15 -0.54,-2.25 -0.26,-2.28 0.00,-2.31 0.28,-2.28 0.56,-2.24 0.82,-2.14 1.08,-2.04 1.31,-1.88 1.54,-1.72 1.72,-1.51 1.91,-1.30 2.04,-1.06 2.17,-0.81 2.23,-0.54 2.30,-0.27 2.30,0.00 2.30,0.28 2.23,0.55 2.16,0.83 2.03,1.07 1.90,1.32 1.71,1.53 1.53,1.74 1.30,1.89 1.06,2.05 1.06,2.05 L 1.06,2.05 Z"></path></g></svg>