<svg version="1.1" xmlns="http://www.w3.org/2000/svg" viewBox="0 0 136.77175506551748 184.57827217939302" width="136.77175506551748" height="184.57827217939302">
  <!-- svg-source:excalidraw -->
  
  <defs>
    <style class="style-fonts">
      @font-face {
        font-family: "Virgil";
        src: url("https://excalidraw.com/Virgil.woff2");
      }
      @font-face {
        font-family: "Cascadia";
        src: url("https://excalidraw.com/Cascadia.woff2");
      }
    </style>
  </defs>
  <rect x="0" y="0" width="136.77175506551748" height="184.57827217939302" fill="#ffffff"></rect><g transform="translate(32.73432399505646 91.90800310645955) rotate(0 0.5166891817059422 41.33513453646674)" stroke="none"><path fill="#e66000" d="M 1.52,-0.33 Q 1.52,-0.33 2.08,2.34 2.64,5.02 3.18,8.89 3.71,12.76 3.93,17.12 4.16,21.47 4.24,25.70 4.33,29.92 4.36,34.09 4.40,38.26 4.41,42.12 4.42,45.97 4.42,49.69 4.42,53.40 4.42,56.77 4.42,60.13 4.12,63.69 3.82,67.26 3.39,69.70 2.96,72.14 2.54,73.85 2.13,75.55 1.68,77.48 1.22,79.42 0.56,81.33 -0.08,83.24 -0.23,83.54 -0.37,83.84 -0.60,84.08 -0.83,84.32 -1.13,84.47 -1.42,84.62 -1.75,84.67 -2.08,84.72 -2.41,84.67 -2.74,84.61 -3.03,84.45 -3.32,84.29 -3.55,84.05 -3.78,83.80 -3.91,83.50 -4.05,83.20 -4.08,82.87 -4.12,82.53 -4.04,82.21 -3.97,81.88 -3.79,81.60 -3.62,81.32 -3.36,81.10 -3.11,80.89 -2.80,80.77 -2.48,80.65 -2.15,80.63 -1.82,80.62 -1.50,80.71 -1.18,80.80 -0.90,80.99 -0.63,81.18 -0.43,81.45 -0.23,81.72 -0.13,82.04 -0.03,82.35 -0.03,82.69 -0.03,83.02 -0.14,83.33 -0.25,83.65 -0.46,83.91 -0.66,84.17 -0.94,84.36 -1.22,84.54 -1.54,84.63 -1.86,84.71 -2.19,84.69 -2.52,84.67 -2.83,84.55 -3.14,84.42 -3.39,84.20 -3.64,83.98 -3.81,83.70 -3.98,83.41 -4.05,83.08 -4.12,82.76 -4.08,82.43 -4.04,82.09 -4.04,82.09 -4.04,82.10 -3.10,79.85 -2.15,77.60 -1.44,76.15 -0.72,74.70 -0.18,73.19 0.35,71.68 0.76,69.36 1.18,67.03 1.47,63.58 1.76,60.13 1.75,56.77 1.74,53.41 1.73,49.69 1.72,45.98 1.69,42.14 1.67,38.29 1.62,34.14 1.57,29.99 1.45,25.81 1.34,21.63 1.10,17.40 0.85,13.17 0.29,9.42 -0.27,5.67 -0.89,3.00 -1.52,0.33 -1.54,0.15 -1.56,-0.03 -1.53,-0.22 -1.50,-0.40 -1.43,-0.58 -1.36,-0.75 -1.25,-0.91 -1.14,-1.06 -1.00,-1.18 -0.85,-1.30 -0.68,-1.38 -0.52,-1.47 -0.33,-1.51 -0.15,-1.55 0.03,-1.55 0.22,-1.54 0.40,-1.49 0.58,-1.44 0.75,-1.35 0.91,-1.26 1.05,-1.13 1.19,-1.00 1.29,-0.85 1.39,-0.69 1.46,-0.51 1.52,-0.33 1.52,-0.33 L 1.52,-0.33 Z"></path></g><g transform="translate(101.97067434363771 91.90800310645955) rotate(0 8.267026907293257 38.23499944623154)" stroke="none"><path fill="#e66000" d="M 1.61,-0.35 Q 1.61,-0.35 2.16,2.32 2.71,5.00 3.52,8.51 4.33,12.02 4.98,18.07 5.63,24.11 6.77,30.15 7.91,36.19 8.70,40.57 9.48,44.95 10.11,48.91 10.74,52.86 11.29,55.39 11.84,57.91 12.94,60.69 14.03,63.46 14.86,64.89 15.68,66.31 16.17,67.67 16.66,69.03 17.06,70.62 17.47,72.22 17.74,73.56 18.01,74.89 18.22,75.17 18.43,75.45 18.54,75.78 18.66,76.11 18.66,76.46 18.66,76.80 18.55,77.14 18.44,77.47 18.23,77.75 18.02,78.02 17.73,78.22 17.44,78.42 17.11,78.51 16.77,78.61 16.42,78.59 16.07,78.57 15.75,78.45 15.43,78.32 15.16,78.09 14.89,77.87 14.71,77.57 14.53,77.27 14.45,76.93 14.38,76.59 14.41,76.24 14.45,75.90 14.59,75.58 14.74,75.26 14.98,75.01 15.22,74.75 15.52,74.59 15.83,74.42 16.18,74.37 16.52,74.31 16.86,74.36 17.21,74.42 17.52,74.58 17.83,74.74 18.07,75.00 18.31,75.25 18.46,75.56 18.60,75.88 18.64,76.23 18.68,76.57 18.61,76.91 18.54,77.25 18.36,77.55 18.18,77.85 17.91,78.08 17.65,78.31 17.32,78.44 17.00,78.57 16.65,78.59 16.30,78.61 15.97,78.52 15.63,78.43 15.34,78.23 15.05,78.04 15.05,78.04 15.05,78.04 14.20,75.32 13.35,72.60 13.35,71.25 13.35,69.91 13.18,68.79 13.01,67.66 12.28,66.05 11.54,64.44 10.38,61.47 9.21,58.50 8.63,55.90 8.04,53.29 7.40,49.37 6.76,45.45 5.96,41.08 5.15,36.72 3.95,30.57 2.76,24.43 2.09,18.57 1.43,12.72 0.54,9.20 -0.33,5.68 -0.97,3.02 -1.61,0.35 -1.63,0.16 -1.65,-0.03 -1.62,-0.23 -1.59,-0.43 -1.51,-0.61 -1.44,-0.80 -1.32,-0.96 -1.20,-1.12 -1.05,-1.25 -0.90,-1.37 -0.72,-1.46 -0.54,-1.55 -0.35,-1.59 -0.16,-1.64 0.03,-1.63 0.23,-1.63 0.42,-1.58 0.62,-1.52 0.79,-1.43 0.96,-1.33 1.11,-1.20 1.26,-1.06 1.36,-0.89 1.47,-0.73 1.54,-0.54 1.61,-0.35 1.61,-0.35 L 1.61,-0.35 Z"></path></g><g transform="translate(10 115.67570546492789) rotate(0 58.38587753275874 -35.13486435599634)" stroke="none"><path fill="#e66000" d="M -1.32,-1.06 Q -1.32,-1.06 -0.13,-2.54 1.04,-4.03 2.11,-5.52 3.18,-7.01 4.94,-8.88 6.69,-10.75 7.95,-12.61 9.21,-14.46 10.75,-16.00 12.29,-17.55 13.05,-18.93 13.80,-20.32 15.16,-21.94 16.51,-23.56 17.93,-25.61 19.35,-27.66 22.75,-31.03 26.14,-34.41 29.33,-37.57 32.53,-40.74 35.91,-44.99 39.30,-49.24 41.38,-51.68 43.45,-54.12 45.81,-56.93 48.17,-59.74 49.08,-61.21 50.00,-62.69 50.75,-63.54 51.51,-64.38 52.26,-66.00 53.02,-67.61 53.53,-68.88 54.05,-70.15 56.08,-71.16 58.12,-72.18 59.13,-71.59 60.15,-71.00 63.54,-66.92 66.93,-62.83 69.49,-59.31 72.05,-55.78 75.78,-50.40 79.52,-45.02 83.43,-40.09 87.33,-35.17 90.18,-31.56 93.03,-27.95 94.52,-26.12 96.01,-24.30 97.29,-22.24 98.57,-20.19 100.83,-17.33 103.08,-14.47 105.82,-11.16 108.57,-7.85 110.28,-6.19 112.00,-4.53 112.91,-3.50 113.83,-2.46 115.67,-1.52 117.50,-0.58 117.74,-0.42 117.98,-0.26 118.15,-0.03 118.33,0.19 118.42,0.46 118.52,0.73 118.52,1.02 118.52,1.30 118.43,1.58 118.34,1.85 118.17,2.08 118.00,2.31 117.76,2.47 117.52,2.63 117.25,2.71 116.97,2.79 116.68,2.78 116.40,2.76 116.13,2.66 115.86,2.56 115.64,2.37 115.42,2.19 115.27,1.94 115.12,1.70 115.06,1.42 115.00,1.14 115.03,0.85 115.05,0.57 115.17,0.30 115.29,0.04 115.49,-0.16 115.68,-0.37 115.94,-0.50 116.19,-0.64 116.47,-0.69 116.75,-0.74 117.04,-0.69 117.32,-0.65 117.58,-0.51 117.83,-0.38 118.03,-0.17 118.23,0.02 118.35,0.28 118.47,0.54 118.51,0.83 118.54,1.11 118.48,1.39 118.42,1.67 118.27,1.92 118.13,2.17 117.91,2.35 117.69,2.54 117.43,2.65 117.16,2.76 116.87,2.78 116.59,2.79 116.31,2.72 116.03,2.64 116.03,2.64 116.03,2.64 113.66,1.04 111.28,-0.55 110.69,-1.56 110.11,-2.58 108.28,-4.33 106.46,-6.09 103.67,-9.41 100.89,-12.73 98.52,-15.70 96.16,-18.66 94.96,-20.54 93.75,-22.41 92.20,-24.22 90.65,-26.03 87.73,-29.59 84.82,-33.14 80.76,-38.08 76.71,-43.02 72.88,-48.26 69.06,-53.51 66.42,-56.81 63.78,-60.11 60.80,-64.25 57.83,-68.39 57.13,-66.91 56.43,-65.44 55.69,-64.40 54.94,-63.36 53.69,-62.19 52.44,-61.02 51.34,-59.51 50.25,-58.00 47.90,-55.18 45.54,-52.35 43.51,-49.93 41.48,-47.51 38.01,-43.12 34.54,-38.73 31.37,-35.53 28.21,-32.34 25.04,-29.15 21.87,-25.95 20.42,-23.73 18.97,-21.51 17.76,-20.08 16.56,-18.64 15.50,-17.03 14.43,-15.42 13.09,-14.09 11.75,-12.77 10.41,-10.69 9.07,-8.61 7.52,-6.81 5.96,-5.01 4.83,-3.46 3.70,-1.90 2.51,-0.42 1.32,1.06 1.18,1.20 1.03,1.34 0.85,1.45 0.68,1.55 0.48,1.61 0.28,1.67 0.08,1.68 -0.11,1.69 -0.32,1.65 -0.52,1.61 -0.70,1.53 -0.89,1.44 -1.05,1.31 -1.21,1.18 -1.33,1.02 -1.46,0.86 -1.54,0.67 -1.62,0.48 -1.66,0.28 -1.69,0.08 -1.68,-0.11 -1.66,-0.32 -1.60,-0.51 -1.54,-0.71 -1.43,-0.88 -1.32,-1.06 -1.32,-1.06 L -1.32,-1.06 Z"></path></g><g transform="translate(86.17432645160306 55.020719046571685) rotate(0 0.3310346988716901 3.8068990370261417)" stroke="none"><path d="M1.36 -0.63 L1.25 0.46 L-0.7 2.4 L0.97 -0.02 L0.94 0.79 L1.86 0.13 L-0.84 4.58 L2.11 1.9 L0.3 3.89 L0.71 3 L0.5 6.2 L1.44 3.54 L2.33 7.07 L1.49 4.68 L1.14 7.41 L1.87 5.94 L-0.93 5.21 L1.03 8.93 L-1.29 6.17 L2.18 7.61" stroke="none" stroke-width="0" fill="#ced4da" fill-rule="evenodd"></path><path fill="#e66000" d="M 2.47,-0.61 Q 2.47,-0.61 2.70,0.13 2.94,0.88 3.20,2.15 3.45,3.43 3.30,5.86 3.14,8.30 2.96,8.73 2.78,9.16 2.47,9.51 2.15,9.86 1.75,10.10 1.34,10.33 0.88,10.42 0.42,10.51 -0.04,10.45 -0.50,10.39 -0.92,10.18 -1.35,9.97 -1.68,9.64 -2.01,9.31 -2.22,8.89 -2.43,8.47 -2.50,8.01 -2.56,7.54 -2.48,7.08 -2.39,6.62 -2.16,6.21 -1.93,5.80 -1.59,5.49 -1.24,5.17 -0.81,4.98 -0.38,4.80 0.08,4.76 0.55,4.72 1.01,4.83 1.46,4.94 1.86,5.19 2.25,5.44 2.55,5.81 2.85,6.17 3.01,6.61 3.17,7.05 3.19,7.52 3.20,7.99 3.07,8.44 2.93,8.89 2.66,9.27 2.39,9.65 2.01,9.93 1.63,10.20 1.18,10.34 0.73,10.48 0.26,10.47 -0.20,10.46 -0.64,10.30 -1.08,10.14 -1.45,9.85 -1.82,9.56 -2.07,9.16 -2.32,8.77 -2.44,8.31 -2.55,7.86 -2.52,7.39 -2.48,6.92 -2.48,6.92 -2.48,6.92 -2.35,5.67 -2.22,4.43 -2.20,3.29 -2.18,2.16 -2.32,1.39 -2.47,0.61 -2.51,0.31 -2.55,0.00 -2.51,-0.29 -2.47,-0.60 -2.37,-0.89 -2.26,-1.17 -2.08,-1.43 -1.91,-1.68 -1.68,-1.89 -1.45,-2.09 -1.18,-2.23 -0.91,-2.38 -0.61,-2.45 -0.31,-2.53 -0.00,-2.53 0.29,-2.53 0.59,-2.46 0.89,-2.38 1.16,-2.24 1.44,-2.10 1.67,-1.90 1.90,-1.69 2.07,-1.44 2.25,-1.19 2.36,-0.90 2.47,-0.61 2.47,-0.61 L 2.47,-0.61 Z"></path></g><g transform="translate(86.50536115047453 51.71037205785342) rotate(0 4.965520483077853 11.420697111078425)" stroke="none"><path fill="#e66000" d="M 0,-2.61 Q 0,-2.61 0.76,-2.65 1.52,-2.69 2.79,-2.95 4.06,-3.21 5.73,-3.39 7.39,-3.58 9.25,-3.19 11.11,-2.81 11.87,-1.61 12.63,-0.42 12.87,0.85 13.11,2.12 13.16,3.20 13.21,4.28 13.26,5.48 13.30,6.68 13.05,8.50 12.79,10.32 12.74,11.46 12.68,12.60 12.69,14.03 12.70,15.46 12.71,16.59 12.72,17.73 12.91,20.60 13.09,23.46 13.00,24.02 12.92,24.58 12.66,25.08 12.40,25.58 11.99,25.98 11.59,26.37 11.07,26.61 10.56,26.85 10.00,26.92 9.44,26.99 8.89,26.87 8.34,26.76 7.85,26.47 7.36,26.18 6.99,25.76 6.62,25.33 6.41,24.81 6.19,24.28 6.15,23.72 6.12,23.16 6.26,22.61 6.41,22.06 6.72,21.59 7.03,21.12 7.48,20.78 7.93,20.43 8.46,20.24 8.99,20.06 9.56,20.05 10.12,20.05 10.66,20.22 11.20,20.40 11.65,20.73 12.11,21.07 12.43,21.53 12.75,22.00 12.91,22.54 13.06,23.09 13.04,23.65 13.01,24.21 12.81,24.74 12.61,25.27 12.25,25.70 11.88,26.14 11.40,26.43 10.92,26.73 10.37,26.86 9.82,26.98 9.26,26.93 8.69,26.87 8.18,26.64 7.66,26.41 7.25,26.03 6.84,25.64 6.57,25.14 6.30,24.65 6.20,24.09 6.10,23.53 6.10,23.53 6.10,23.53 5.95,21.25 5.80,18.97 5.81,17.81 5.82,16.64 5.83,15.51 5.85,14.37 5.92,12.75 5.99,11.14 6.19,9.44 6.38,7.74 6.50,6.32 6.61,4.91 6.56,3.66 6.50,2.41 5.15,2.47 3.79,2.54 2.66,2.61 1.52,2.69 0.76,2.65 0,2.61 -0.31,2.57 -0.62,2.53 -0.91,2.42 -1.21,2.31 -1.47,2.13 -1.73,1.95 -1.93,1.71 -2.14,1.48 -2.29,1.20 -2.44,0.92 -2.51,0.61 -2.59,0.31 -2.59,-0.00 -2.59,-0.31 -2.51,-0.62 -2.44,-0.92 -2.29,-1.20 -2.14,-1.48 -1.93,-1.71 -1.73,-1.95 -1.47,-2.13 -1.21,-2.31 -0.91,-2.42 -0.62,-2.53 -0.31,-2.57 0.00,-2.61 0.00,-2.61 L 0,-2.61 Z"></path></g><g transform="translate(90.808812235809 39.13105350072237) rotate(0 -4.303451085334473 -14.565526750361187)" stroke="none"><path fill="#e66000" d="M -1.29,2.26 Q -1.29,2.26 -2.61,1.47 -3.93,0.69 -5.76,-1.45 -7.60,-3.59 -8.33,-5.05 -9.06,-6.51 -8.99,-7.75 -8.91,-8.99 -8.43,-9.99 -7.94,-10.99 -6.15,-12.45 -4.37,-13.90 -3.11,-14.41 -1.85,-14.91 -0.89,-15.49 0.07,-16.06 -1.03,-16.60 -2.14,-17.14 -3.58,-18.34 -5.02,-19.54 -6.93,-21.64 -8.85,-23.74 -10.88,-25.52 -12.90,-27.30 -13.15,-27.61 -13.40,-27.92 -13.53,-28.30 -13.67,-28.67 -13.68,-29.07 -13.69,-29.47 -13.57,-29.85 -13.45,-30.23 -13.22,-30.55 -12.98,-30.87 -12.66,-31.10 -12.33,-31.34 -11.95,-31.45 -11.57,-31.57 -11.17,-31.55 -10.78,-31.54 -10.40,-31.40 -10.03,-31.26 -9.72,-31.01 -9.41,-30.76 -9.20,-30.43 -8.99,-30.09 -8.89,-29.70 -8.80,-29.32 -8.83,-28.92 -8.86,-28.52 -9.02,-28.16 -9.18,-27.79 -9.45,-27.50 -9.72,-27.20 -10.06,-27.01 -10.41,-26.81 -10.80,-26.74 -11.19,-26.67 -11.59,-26.72 -11.98,-26.78 -12.34,-26.96 -12.69,-27.13 -12.97,-27.42 -13.25,-27.70 -13.43,-28.06 -13.61,-28.41 -13.66,-28.81 -13.71,-29.20 -13.63,-29.59 -13.56,-29.98 -13.36,-30.33 -13.16,-30.68 -12.86,-30.94 -12.57,-31.21 -12.20,-31.36 -11.83,-31.52 -11.44,-31.55 -11.04,-31.58 -10.65,-31.48 -10.27,-31.38 -9.93,-31.17 -9.60,-30.95 -9.60,-30.95 -9.60,-30.95 -7.56,-29.05 -5.51,-27.15 -3.71,-25.61 -1.92,-24.07 0.00,-22.98 1.93,-21.89 3.28,-20.73 4.63,-19.58 5.21,-17.95 5.78,-16.32 5.51,-14.75 5.23,-13.18 4.26,-12.07 3.29,-10.95 1.84,-10.22 0.38,-9.48 -1.11,-9.05 -2.62,-8.62 -2.82,-7.40 -3.01,-6.18 -2.20,-4.96 -1.39,-3.73 -0.05,-3.00 1.29,-2.26 1.54,-2.07 1.79,-1.88 1.99,-1.64 2.19,-1.40 2.33,-1.12 2.47,-0.83 2.53,-0.52 2.59,-0.22 2.58,0.09 2.57,0.40 2.49,0.70 2.40,1.01 2.24,1.28 2.09,1.55 1.87,1.78 1.65,2.01 1.39,2.18 1.12,2.35 0.83,2.45 0.53,2.55 0.21,2.58 -0.09,2.60 -0.40,2.55 -0.71,2.50 -1.00,2.38 -1.29,2.26 -1.29,2.26 L -1.29,2.26 Z"></path></g><g transform="translate(46.11912788810878 104.01385447960547) rotate(0 0.662069397743835 4.137933735898059)" stroke="none"><path fill="#e66000" d="M 2.44,-0.73 Q 2.44,-0.73 2.76,0.20 3.09,1.15 3.39,2.81 3.69,4.48 3.91,6.27 4.14,8.06 4.10,8.52 4.06,8.97 3.87,9.39 3.69,9.81 3.38,10.15 3.07,10.49 2.67,10.71 2.27,10.93 1.82,11.01 1.37,11.09 0.92,11.03 0.47,10.96 0.06,10.76 -0.34,10.55 -0.66,10.23 -0.98,9.90 -1.18,9.49 -1.38,9.08 -1.44,8.63 -1.49,8.17 -1.40,7.72 -1.31,7.28 -1.09,6.88 -0.86,6.48 -0.52,6.18 -0.17,5.88 0.24,5.70 0.66,5.52 1.11,5.49 1.57,5.46 2.01,5.57 2.46,5.68 2.84,5.93 3.22,6.18 3.51,6.54 3.79,6.90 3.94,7.33 4.10,7.76 4.11,8.22 4.11,8.67 3.98,9.11 3.84,9.55 3.57,9.91 3.30,10.28 2.93,10.55 2.55,10.81 2.12,10.94 1.68,11.07 1.22,11.06 0.77,11.04 0.34,10.88 -0.08,10.72 -0.43,10.43 -0.79,10.14 -1.03,9.75 -1.27,9.37 -1.38,8.92 -1.49,8.48 -1.49,8.48 -1.49,8.48 -1.67,6.71 -1.85,4.94 -1.90,3.79 -1.94,2.65 -2.19,1.69 -2.44,0.73 -2.49,0.43 -2.55,0.12 -2.53,-0.18 -2.50,-0.48 -2.41,-0.78 -2.31,-1.07 -2.15,-1.33 -1.99,-1.59 -1.77,-1.81 -1.55,-2.02 -1.28,-2.18 -1.02,-2.34 -0.72,-2.42 -0.43,-2.51 -0.12,-2.53 0.18,-2.54 0.48,-2.48 0.78,-2.43 1.06,-2.30 1.34,-2.17 1.58,-1.97 1.82,-1.78 2.01,-1.54 2.20,-1.29 2.32,-1.01 2.44,-0.73 2.44,-0.73 L 2.44,-0.73 Z"></path></g><g transform="translate(47.44326668359645 102.02764628637397) rotate(0 11.255179761642921 6.124141929130019)" stroke="none"><path fill="#e66000" d="M -0.05,-2.39 Q -0.05,-2.39 4.32,-2.35 8.70,-2.30 11.14,-2.24 13.58,-2.17 14.80,-2.24 16.01,-2.32 17.33,-1.74 18.64,-1.16 19.54,0.00 20.44,1.17 21.22,3.00 22.00,4.84 22.46,6.17 22.91,7.50 23.97,9.64 25.03,11.78 25.09,12.20 25.15,12.63 25.07,13.05 24.99,13.47 24.79,13.84 24.58,14.21 24.26,14.50 23.95,14.79 23.55,14.96 23.16,15.13 22.74,15.17 22.31,15.21 21.90,15.11 21.48,15.01 21.12,14.78 20.76,14.55 20.49,14.22 20.22,13.89 20.06,13.49 19.91,13.09 19.90,12.67 19.88,12.24 20.01,11.83 20.13,11.42 20.38,11.07 20.62,10.72 20.97,10.47 21.31,10.22 21.72,10.09 22.13,9.96 22.56,9.97 22.98,9.98 23.39,10.12 23.79,10.26 24.12,10.53 24.46,10.79 24.69,11.15 24.92,11.51 25.03,11.93 25.14,12.34 25.11,12.77 25.07,13.19 24.91,13.59 24.74,13.98 24.46,14.30 24.18,14.62 23.81,14.83 23.44,15.05 23.02,15.13 22.60,15.22 22.17,15.16 21.75,15.11 21.36,14.92 20.98,14.73 20.68,14.43 20.37,14.13 20.18,13.75 19.99,13.37 19.99,13.37 19.99,13.37 19.06,11.24 18.14,9.11 17.69,7.80 17.25,6.48 16.71,4.46 16.16,2.43 14.90,2.03 13.65,1.63 11.22,1.77 8.80,1.92 4.42,2.16 0.05,2.39 -0.23,2.37 -0.52,2.34 -0.79,2.24 -1.06,2.14 -1.31,1.98 -1.55,1.83 -1.74,1.61 -1.94,1.40 -2.08,1.15 -2.22,0.89 -2.29,0.62 -2.37,0.34 -2.38,0.05 -2.38,-0.23 -2.32,-0.51 -2.26,-0.80 -2.13,-1.06 -2.00,-1.32 -1.81,-1.54 -1.62,-1.76 -1.39,-1.93 -1.16,-2.10 -0.89,-2.20 -0.62,-2.31 -0.33,-2.35 -0.05,-2.39 -0.05,-2.39 L -0.05,-2.39 Z"></path></g><g transform="translate(49.4294748768275 117.25524243447944) rotate(0 8.772419520103995 0)" stroke="none"><path fill="#e66000" d="M 0,-2.62 Q 0,-2.62 1.14,-2.64 2.28,-2.66 3.66,-2.74 5.04,-2.81 6.62,-2.98 8.21,-3.16 9.40,-3.23 10.59,-3.31 11.72,-3.39 12.84,-3.47 15.19,-3.51 17.54,-3.55 18.06,-3.47 18.57,-3.38 19.03,-3.14 19.49,-2.89 19.85,-2.52 20.21,-2.14 20.43,-1.66 20.65,-1.19 20.71,-0.67 20.76,-0.15 20.65,0.35 20.54,0.86 20.27,1.31 20.00,1.75 19.60,2.09 19.20,2.43 18.72,2.62 18.23,2.82 17.71,2.84 17.19,2.87 16.69,2.73 16.18,2.59 15.75,2.30 15.32,2.01 15.00,1.59 14.69,1.17 14.52,0.68 14.36,0.19 14.36,-0.33 14.36,-0.85 14.52,-1.34 14.69,-1.84 15.01,-2.25 15.32,-2.67 15.75,-2.96 16.19,-3.25 16.69,-3.39 17.19,-3.53 17.71,-3.51 18.23,-3.48 18.72,-3.28 19.20,-3.09 19.60,-2.75 20.00,-2.41 20.27,-1.97 20.54,-1.52 20.65,-1.01 20.76,-0.50 20.71,0.01 20.65,0.53 20.43,1.00 20.21,1.48 19.85,1.85 19.49,2.23 19.03,2.48 18.57,2.72 18.05,2.81 17.54,2.89 17.54,2.89 17.54,2.89 15.19,2.85 12.85,2.81 11.77,2.74 10.69,2.67 9.56,2.64 8.42,2.62 6.74,2.71 5.05,2.81 3.67,2.74 2.28,2.66 1.14,2.64 0,2.62 -0.31,2.58 -0.62,2.54 -0.92,2.43 -1.21,2.32 -1.48,2.14 -1.74,1.96 -1.95,1.72 -2.16,1.49 -2.30,1.21 -2.45,0.93 -2.53,0.62 -2.60,0.31 -2.60,-0.00 -2.60,-0.31 -2.52,-0.62 -2.45,-0.93 -2.30,-1.21 -2.16,-1.49 -1.95,-1.72 -1.74,-1.96 -1.48,-2.14 -1.21,-2.32 -0.92,-2.43 -0.62,-2.54 -0.31,-2.58 0.00,-2.62 0.00,-2.62 L 0,-2.62 Z"></path></g><g transform="translate(78.22949367867841 133.47594267920067) rotate(0 3.806899037026369 16.05518289528436)" stroke="none"><path fill="#e66000" d="M 2.59,-0.48 Q 2.59,-0.48 2.84,1.04 3.09,2.57 3.44,4.38 3.79,6.20 4.23,7.78 4.67,9.37 5.11,10.59 5.54,11.82 5.81,12.94 6.07,14.05 6.45,15.11 6.83,16.16 7.35,17.26 7.88,18.36 8.48,19.93 9.08,21.50 9.38,23.01 9.69,24.52 9.96,26.35 10.24,28.18 10.56,29.59 10.87,31.00 10.96,31.55 11.05,32.10 10.97,32.65 10.88,33.20 10.62,33.69 10.36,34.18 9.95,34.57 9.55,34.95 9.04,35.19 8.54,35.42 7.98,35.49 7.43,35.55 6.89,35.43 6.34,35.31 5.86,35.02 5.38,34.74 5.02,34.31 4.66,33.89 4.45,33.37 4.25,32.85 4.21,32.30 4.18,31.74 4.33,31.20 4.48,30.67 4.79,30.20 5.10,29.74 5.54,29.40 5.99,29.06 6.52,28.89 7.04,28.71 7.60,28.70 8.16,28.70 8.69,28.88 9.22,29.06 9.66,29.39 10.11,29.73 10.42,30.19 10.73,30.65 10.88,31.19 11.03,31.73 11.00,32.28 10.98,32.84 10.77,33.36 10.57,33.88 10.21,34.30 9.85,34.73 9.37,35.02 8.89,35.30 8.35,35.42 7.80,35.55 7.25,35.49 6.69,35.43 6.19,35.19 5.68,34.96 5.28,34.58 4.87,34.20 4.61,33.70 4.35,33.21 4.35,33.21 4.35,33.21 3.84,30.45 3.33,27.68 3.21,26.53 3.09,25.39 2.85,24.11 2.60,22.82 1.97,21.13 1.34,19.43 1.02,18.31 0.70,17.19 0.28,15.30 -0.12,13.40 -0.46,12.06 -0.80,10.72 -1.18,8.91 -1.57,7.10 -1.76,5.31 -1.95,3.51 -2.27,2.00 -2.59,0.48 -2.61,0.16 -2.63,-0.14 -2.57,-0.46 -2.52,-0.77 -2.39,-1.06 -2.26,-1.35 -2.06,-1.60 -1.87,-1.85 -1.62,-2.05 -1.37,-2.25 -1.08,-2.38 -0.79,-2.51 -0.48,-2.57 -0.16,-2.63 0.14,-2.61 0.46,-2.59 0.76,-2.50 1.07,-2.41 1.34,-2.24 1.61,-2.08 1.84,-1.85 2.07,-1.63 2.23,-1.36 2.40,-1.09 2.49,-0.78 2.59,-0.48 2.59,-0.48 L 2.59,-0.48 Z"></path></g><g transform="translate(77.89845897980649 130.1655956904815) rotate(0 10.758627713335159 18.537943136823742)" stroke="none"><path fill="#e66000" d="M -0.18,-2.61 Q -0.18,-2.61 1.14,-2.70 2.47,-2.80 3.77,-3.09 5.07,-3.38 6.30,-3.48 7.52,-3.58 8.97,-3.63 10.41,-3.68 11.82,-3.76 13.22,-3.84 15.70,-2.58 18.19,-1.32 18.56,0.54 18.93,2.41 18.98,4.14 19.03,5.88 19.09,7.53 19.16,9.19 19.29,10.99 19.42,12.79 19.58,14.82 19.74,16.86 19.93,18.60 20.11,20.34 20.26,21.60 20.40,22.86 20.49,23.98 20.58,25.11 20.87,26.20 21.16,27.29 21.49,28.47 21.82,29.66 22.15,31.07 22.48,32.47 23.10,34.36 23.71,36.25 23.89,36.64 24.07,37.03 24.12,37.46 24.16,37.89 24.07,38.31 23.97,38.72 23.75,39.09 23.53,39.46 23.20,39.73 22.87,40.01 22.47,40.17 22.07,40.33 21.64,40.35 21.22,40.37 20.80,40.25 20.39,40.14 20.04,39.89 19.68,39.65 19.42,39.31 19.16,38.97 19.03,38.56 18.89,38.15 18.90,37.72 18.90,37.29 19.04,36.89 19.17,36.48 19.43,36.14 19.70,35.80 20.05,35.56 20.41,35.32 20.82,35.21 21.24,35.10 21.66,35.12 22.09,35.15 22.49,35.31 22.89,35.47 23.21,35.74 23.54,36.02 23.76,36.39 23.98,36.76 24.07,37.18 24.16,37.60 24.11,38.03 24.06,38.45 23.88,38.84 23.70,39.23 23.41,39.54 23.11,39.85 22.73,40.05 22.35,40.25 21.93,40.32 21.50,40.39 21.08,40.31 20.66,40.24 20.28,40.04 19.90,39.84 19.61,39.53 19.31,39.21 19.31,39.21 19.31,39.21 18.45,36.42 17.59,33.63 17.27,32.28 16.95,30.93 16.65,29.66 16.34,28.39 16.03,25.81 15.72,23.23 15.68,22.07 15.63,20.92 15.38,19.23 15.12,17.54 14.68,15.53 14.23,13.52 13.85,11.63 13.46,9.74 13.21,8.08 12.96,6.43 12.71,4.84 12.45,3.26 12.40,1.63 12.35,0.00 13.08,1.27 13.80,2.54 12.68,2.49 11.57,2.43 10.44,2.37 9.31,2.31 7.44,2.25 5.57,2.20 4.21,2.31 2.85,2.42 1.51,2.51 0.18,2.61 -0.12,2.59 -0.44,2.58 -0.74,2.49 -1.04,2.40 -1.32,2.24 -1.59,2.07 -1.81,1.85 -2.04,1.63 -2.21,1.36 -2.37,1.10 -2.47,0.80 -2.57,0.50 -2.59,0.18 -2.61,-0.12 -2.56,-0.44 -2.50,-0.75 -2.38,-1.04 -2.25,-1.33 -2.06,-1.58 -1.87,-1.83 -1.62,-2.03 -1.37,-2.22 -1.09,-2.36 -0.80,-2.49 -0.49,-2.55 -0.18,-2.61 -0.18,-2.61 L -0.18,-2.61 Z"></path></g></svg>