<svg version="1.1" xmlns="http://www.w3.org/2000/svg" viewBox="0 0 188.86046233384332 139.68920163678922" width="188.86046233384332" height="139.68920163678922">
  <!-- svg-source:excalidraw -->
  
  <defs>
    <style class="style-fonts">
      @font-face {
        font-family: "Virgil";
        src: url("https://excalidraw.com/Virgil.woff2");
      }
      @font-face {
        font-family: "Cascadia";
        src: url("https://excalidraw.com/Cascadia.woff2");
      }
    </style>
  </defs>
  <rect x="0" y="0" width="188.86046233384332" height="139.68920163678922" fill="#ffffff"></rect><g transform="translate(25.139975688803816 68.64200243483901) rotate(0 -0.36666666666667425 4.547473508864641e-13)" stroke="none"><path d="M-0.45 -0.39 C-0.45 -0.39, -0.45 -0.39, -0.45 -0.39 M-0.45 -0.39 C-0.45 -0.39, -0.45 -0.39, -0.45 -0.39" stroke="#ced4da" stroke-width="0.5" fill="none"></path><path fill="#e66000" d="M -0.54,2.29 Q -0.54,2.29 -0.90,2.21 -1.27,2.13 -1.59,1.94 -1.91,1.75 -2.16,1.47 -2.41,1.19 -2.55,0.84 -2.69,0.50 -2.71,0.12 -2.74,-0.24 -2.64,-0.60 -2.55,-0.96 -2.34,-1.28 -2.13,-1.59 -1.84,-1.82 -1.54,-2.05 -1.19,-2.17 -0.83,-2.29 -0.46,-2.30 -0.09,-2.30 0.26,-2.19 0.62,-2.07 0.92,-1.85 1.22,-1.62 1.43,-1.32 1.64,-1.01 1.75,-0.65 1.85,-0.29 1.84,0.08 1.82,0.45 1.68,0.80 1.55,1.15 1.31,1.44 1.07,1.72 0.75,1.92 0.43,2.12 0.07,2.20 -0.29,2.28 -0.66,2.25 -1.03,2.21 -1.37,2.06 -1.71,1.90 -1.99,1.65 -2.26,1.40 -2.44,1.07 -2.62,0.74 -2.68,0.37 -2.75,0.00 -2.69,-0.36 -2.64,-0.73 -2.46,-1.06 -2.29,-1.39 -2.02,-1.66 -1.75,-1.92 -1.42,-2.08 -1.08,-2.24 -0.71,-2.28 -0.33,-2.33 -0.33,-2.33 -0.34,-2.33 -0.05,-2.33 0.22,-2.34 0.50,-2.28 0.78,-2.22 1.03,-2.09 1.29,-1.97 1.50,-1.78 1.72,-1.60 1.89,-1.37 2.05,-1.14 2.16,-0.88 2.27,-0.61 2.31,-0.33 2.35,-0.05 2.32,0.22 2.29,0.50 2.20,0.77 2.11,1.04 1.95,1.28 1.80,1.51 1.59,1.71 1.38,1.90 1.13,2.04 0.88,2.18 0.61,2.25 0.34,2.33 -0.10,2.31 L -0.54,2.29 Z"></path></g><g transform="translate(25.552876221506494 69.1690610733458) rotate(0 -6.3587696552446005 -6.236485623412591)" stroke="none"><path fill="#e66000" d="M 0.25,2.57 Q 0.25,2.57 -0.44,2.68 -1.14,2.79 -2.22,2.94 -3.30,3.08 -4.96,3.03 -6.63,2.97 -7.87,2.75 -9.11,2.53 -10.30,2.29 -11.50,2.04 -12.46,1.35 -13.43,0.67 -14.15,-0.27 -14.88,-1.21 -15.36,-2.42 -15.85,-3.63 -16.00,-4.69 -16.15,-5.75 -15.55,-7.04 -14.96,-8.32 -14.00,-9.57 -13.04,-10.81 -12.33,-11.79 -11.62,-12.78 -10.65,-13.57 -9.68,-14.35 -8.45,-14.91 -7.21,-15.48 -4.75,-15.96 -2.29,-16.44 -1.68,-16.39 -1.08,-16.34 -0.52,-16.09 0.02,-15.85 0.47,-15.44 0.92,-15.04 1.21,-14.51 1.51,-13.98 1.62,-13.38 1.73,-12.78 1.64,-12.18 1.55,-11.58 1.28,-11.04 1.01,-10.50 0.58,-10.08 0.15,-9.65 -0.39,-9.38 -0.93,-9.12 -1.54,-9.04 -2.14,-8.96 -2.73,-9.08 -3.33,-9.20 -3.85,-9.50 -4.38,-9.80 -4.78,-10.26 -5.18,-10.71 -5.42,-11.27 -5.65,-11.83 -5.70,-12.43 -5.74,-13.04 -5.59,-13.63 -5.44,-14.21 -5.11,-14.72 -4.78,-15.23 -4.31,-15.61 -3.83,-15.98 -3.26,-16.19 -2.69,-16.39 -2.08,-16.40 -1.48,-16.42 -0.90,-16.23 -0.32,-16.05 0.16,-15.70 0.65,-15.34 1.00,-14.84 1.35,-14.35 1.52,-13.77 1.70,-13.19 1.68,-12.58 1.66,-11.98 1.44,-11.41 1.23,-10.84 0.85,-10.37 0.46,-9.90 -0.04,-9.58 -0.55,-9.26 -1.14,-9.11 -1.73,-8.97 -1.73,-8.97 -1.73,-8.97 -2.81,-8.87 -3.89,-8.76 -4.96,-8.48 -6.03,-8.20 -6.98,-7.34 -7.94,-6.49 -9.02,-5.38 -10.11,-4.27 -9.33,-5.13 -8.55,-5.99 -9.07,-4.97 -9.59,-3.95 -9.89,-5.44 -10.19,-6.92 -9.85,-5.40 -9.51,-3.89 -8.22,-3.57 -6.94,-3.25 -5.45,-2.95 -3.96,-2.64 -2.81,-2.58 -1.67,-2.51 -0.96,-2.54 -0.25,-2.57 0.05,-2.56 0.36,-2.55 0.66,-2.47 0.96,-2.39 1.23,-2.24 1.51,-2.09 1.74,-1.88 1.96,-1.67 2.14,-1.41 2.31,-1.15 2.41,-0.85 2.52,-0.56 2.55,-0.25 2.58,0.05 2.53,0.36 2.49,0.67 2.37,0.96 2.26,1.24 2.07,1.50 1.89,1.75 1.65,1.95 1.42,2.15 1.14,2.29 0.86,2.43 0.56,2.50 0.25,2.57 0.25,2.57 L 0.25,2.57 Z"></path></g><g transform="translate(25.92693668163224 53.77863838284793) rotate(0 68.44755366207232 -21.889319191423965)" stroke="none"><path fill="#e66000" d="M -2.58,0 Q -2.58,0 -2.54,-1.60 -2.50,-3.20 -2.30,-4.67 -2.10,-6.14 -2.08,-7.30 -2.06,-8.46 -2.13,-9.53 -2.19,-10.60 -1.95,-12.01 -1.71,-13.41 -0.98,-15.22 -0.25,-17.02 0.49,-18.31 1.23,-19.59 2.20,-20.70 3.16,-21.80 3.90,-22.84 4.64,-23.88 5.37,-24.68 6.09,-25.48 7.06,-26.47 8.02,-27.46 8.87,-28.38 9.72,-29.30 10.73,-29.99 11.74,-30.68 12.79,-31.42 13.85,-32.15 15.07,-33.08 16.30,-34.01 17.70,-34.69 19.10,-35.37 20.14,-35.92 21.18,-36.47 22.57,-36.98 23.96,-37.49 25.46,-38.08 26.96,-38.66 28.98,-39.07 31.00,-39.48 33.71,-40.09 36.41,-40.70 38.28,-41.07 40.16,-41.44 41.49,-41.70 42.83,-41.97 43.86,-42.26 44.88,-42.55 47.03,-42.60 49.17,-42.66 50.60,-42.71 52.03,-42.77 53.49,-43.15 54.95,-43.53 57.87,-43.98 60.78,-44.43 62.04,-44.59 63.29,-44.75 65.51,-45.23 67.73,-45.71 69.37,-46.12 71.02,-46.53 72.24,-46.61 73.47,-46.69 74.79,-46.76 76.12,-46.83 77.61,-46.78 79.10,-46.72 80.53,-46.68 81.96,-46.64 83.80,-46.68 85.63,-46.72 87.28,-46.50 88.92,-46.28 89.99,-45.93 91.06,-45.59 93.04,-45.06 95.01,-44.53 96.41,-44.11 97.80,-43.69 98.98,-43.30 100.15,-42.90 101.49,-42.46 102.82,-42.02 104.17,-41.37 105.52,-40.71 106.98,-39.85 108.45,-38.99 110.10,-37.64 111.75,-36.28 112.77,-35.70 113.79,-35.12 114.80,-34.29 115.82,-33.46 117.01,-32.87 118.20,-32.29 119.03,-31.58 119.85,-30.86 121.07,-29.81 122.29,-28.77 123.43,-27.77 124.57,-26.77 125.56,-25.90 126.55,-25.03 127.81,-24.06 129.06,-23.10 130.13,-22.09 131.19,-21.09 132.04,-19.96 132.88,-18.84 133.82,-17.88 134.75,-16.91 135.97,-15.32 137.19,-13.72 137.96,-12.21 138.73,-10.70 138.88,-9.62 139.03,-8.54 139.79,-5.51 140.54,-2.49 140.47,-1.90 140.39,-1.32 140.13,-0.78 139.88,-0.25 139.46,0.17 139.05,0.59 138.52,0.86 137.99,1.13 137.41,1.21 136.82,1.30 136.24,1.20 135.66,1.09 135.14,0.80 134.62,0.52 134.22,0.08 133.82,-0.34 133.58,-0.89 133.34,-1.43 133.28,-2.02 133.23,-2.61 133.36,-3.18 133.50,-3.76 133.81,-4.26 134.13,-4.77 134.58,-5.14 135.04,-5.52 135.60,-5.73 136.15,-5.94 136.74,-5.96 137.33,-5.99 137.90,-5.82 138.47,-5.65 138.96,-5.31 139.44,-4.97 139.79,-4.49 140.14,-4.01 140.32,-3.45 140.50,-2.89 140.49,-2.29 140.48,-1.70 140.29,-1.14 140.09,-0.58 139.72,-0.12 139.35,0.34 138.86,0.66 138.36,0.99 137.79,1.14 137.22,1.29 136.63,1.24 136.03,1.20 135.49,0.97 134.94,0.75 134.50,0.35 134.05,-0.03 133.75,-0.54 133.46,-1.05 133.34,-1.63 133.22,-2.21 133.22,-2.21 133.22,-2.21 133.33,-2.85 133.45,-3.49 133.12,-5.42 132.79,-7.36 131.90,-8.97 131.01,-10.57 129.98,-11.62 128.95,-12.66 128.16,-13.52 127.37,-14.38 126.58,-15.47 125.78,-16.57 124.80,-17.54 123.81,-18.50 122.93,-19.14 122.05,-19.79 121.06,-20.74 120.07,-21.70 119.10,-22.56 118.13,-23.41 116.79,-24.52 115.45,-25.63 114.17,-26.64 112.88,-27.65 111.45,-28.71 110.01,-29.77 108.93,-30.44 107.85,-31.12 106.24,-32.59 104.63,-34.06 103.61,-34.66 102.60,-35.25 101.18,-35.98 99.76,-36.70 98.08,-37.36 96.40,-38.02 93.82,-38.67 91.23,-39.32 89.69,-39.64 88.14,-39.97 86.89,-40.40 85.64,-40.83 83.80,-40.87 81.97,-40.90 80.54,-40.86 79.12,-40.82 77.01,-40.77 74.91,-40.72 73.57,-40.73 72.23,-40.74 71.03,-40.47 69.83,-40.19 68.44,-40.21 67.04,-40.24 65.44,-39.94 63.84,-39.64 62.72,-39.54 61.60,-39.45 59.84,-39.05 58.09,-38.66 56.39,-38.38 54.69,-38.10 53.47,-37.89 52.24,-37.67 50.88,-37.61 49.52,-37.56 47.92,-37.36 46.32,-37.16 45.11,-36.84 43.91,-36.53 42.81,-36.32 41.72,-36.11 39.77,-35.34 37.81,-34.58 36.37,-34.13 34.94,-33.68 33.39,-33.10 31.84,-32.51 30.41,-32.28 28.98,-32.05 27.84,-31.56 26.69,-31.07 25.11,-30.53 23.53,-29.98 21.94,-29.14 20.35,-28.30 19.29,-27.45 18.22,-26.59 16.83,-25.58 15.45,-24.56 13.91,-23.69 12.37,-22.82 11.37,-21.48 10.36,-20.14 9.42,-19.22 8.48,-18.31 7.34,-16.90 6.20,-15.49 5.53,-14.63 4.87,-13.78 4.22,-12.17 3.58,-10.56 3.46,-9.32 3.34,-8.08 3.12,-6.72 2.90,-5.36 2.70,-4.27 2.50,-3.19 2.54,-1.59 2.58,0 2.54,0.30 2.50,0.61 2.39,0.90 2.28,1.20 2.11,1.45 1.93,1.71 1.70,1.92 1.46,2.12 1.19,2.27 0.91,2.41 0.61,2.49 0.31,2.56 -0.00,2.56 -0.31,2.56 -0.61,2.49 -0.91,2.41 -1.19,2.27 -1.46,2.12 -1.70,1.91 -1.93,1.71 -2.11,1.45 -2.28,1.20 -2.39,0.90 -2.50,0.61 -2.54,0.30 -2.58,-0.00 -2.58,-0.00 L -2.58,0 Z"></path></g><g transform="translate(17.58814841823255 66.9817197998982) rotate(0 77.48124094742207 -3.1270455987742025)" stroke="none"><path fill="#e66000" d="M 0.50,-2.54 Q 0.50,-2.54 1.51,-2.37 2.51,-2.20 3.81,-2.13 5.11,-2.06 6.80,-1.48 8.49,-0.90 9.84,-0.67 11.18,-0.45 12.80,0.19 14.42,0.85 16.42,0.83 18.42,0.82 19.64,0.85 20.86,0.87 22.50,1.10 24.13,1.33 25.34,1.37 26.54,1.42 28.68,1.67 30.82,1.92 32.44,2.03 34.07,2.15 35.71,2.15 37.35,2.14 39.38,2.24 41.42,2.34 43.10,2.45 44.77,2.56 45.88,2.56 47.00,2.56 48.35,2.52 49.71,2.48 50.98,2.42 52.26,2.36 53.40,2.34 54.54,2.33 55.67,1.96 56.80,1.60 58.06,1.55 59.31,1.51 60.46,1.49 61.61,1.47 63.44,1.73 65.26,1.99 67.60,3.16 69.93,4.33 71.21,4.89 72.50,5.44 74.36,5.70 76.23,5.96 77.72,5.99 79.22,6.01 80.31,6.29 81.40,6.57 82.74,6.18 84.07,5.79 85.12,5.49 86.16,5.18 87.60,5.07 89.03,4.96 90.41,4.68 91.79,4.40 93.33,4.30 94.87,4.19 95.97,4.17 97.07,4.15 98.54,3.89 100.01,3.62 101.04,3.27 102.07,2.93 103.15,2.59 104.22,2.25 105.31,2.16 106.40,2.08 107.62,2.05 108.83,2.02 109.91,2.05 110.99,2.08 112.44,2.16 113.90,2.25 115.58,2.10 117.27,1.95 118.50,1.87 119.74,1.78 121.59,1.47 123.45,1.15 124.57,1.04 125.68,0.94 126.82,0.64 127.96,0.33 128.96,-0.02 129.96,-0.37 130.99,-0.74 132.02,-1.12 133.36,-1.23 134.70,-1.34 135.78,-1.81 136.87,-2.28 138.40,-2.71 139.94,-3.13 141.43,-3.60 142.92,-4.08 144.25,-4.37 145.58,-4.67 146.72,-5.44 147.86,-6.21 148.90,-6.89 149.95,-7.58 150.91,-8.56 151.87,-9.53 151.63,-10.65 151.39,-11.77 151.84,-10.77 152.29,-9.77 151.12,-10.72 149.95,-11.68 149.35,-12.67 148.76,-13.67 146.79,-12.69 144.82,-11.70 144.22,-11.69 143.62,-11.67 143.05,-11.84 142.48,-12.02 141.99,-12.36 141.50,-12.71 141.15,-13.20 140.80,-13.68 140.63,-14.25 140.45,-14.83 140.46,-15.42 140.48,-16.02 140.68,-16.59 140.89,-17.15 141.26,-17.62 141.63,-18.08 142.14,-18.41 142.64,-18.73 143.22,-18.88 143.80,-19.02 144.40,-18.98 145.00,-18.93 145.55,-18.69 146.10,-18.46 146.54,-18.06 146.99,-17.66 147.29,-17.14 147.58,-16.62 147.70,-16.03 147.81,-15.45 147.73,-14.85 147.65,-14.26 147.39,-13.72 147.12,-13.19 146.70,-12.76 146.28,-12.34 145.74,-12.07 145.21,-11.80 144.62,-11.72 144.02,-11.64 143.43,-11.75 142.85,-11.86 142.32,-12.15 141.80,-12.45 141.40,-12.89 141.00,-13.34 140.76,-13.88 140.52,-14.43 140.47,-15.03 140.42,-15.63 140.57,-16.21 140.71,-16.79 141.03,-17.29 141.35,-17.80 141.82,-18.18 142.28,-18.55 142.84,-18.76 143.41,-18.97 143.41,-18.97 143.40,-18.97 146.13,-19.31 148.86,-19.65 149.98,-19.60 151.10,-19.55 152.55,-18.72 153.99,-17.88 154.84,-17.02 155.69,-16.17 156.60,-15.39 157.51,-14.61 158.00,-12.30 158.48,-9.98 158.16,-8.35 157.84,-6.72 157.05,-5.69 156.27,-4.66 155.48,-3.89 154.69,-3.11 153.70,-2.13 152.71,-1.15 151.87,-0.40 151.04,0.34 149.80,0.93 148.57,1.53 146.95,1.84 145.34,2.15 143.73,2.67 142.11,3.20 139.77,3.97 137.42,4.74 135.70,5.04 133.98,5.34 132.88,5.68 131.78,6.01 130.31,6.45 128.83,6.88 127.01,7.16 125.19,7.44 124.00,7.53 122.81,7.62 120.59,7.99 118.38,8.36 116.14,8.61 113.90,8.87 111.41,8.99 108.91,9.11 107.47,9.04 106.04,8.98 104.54,9.36 103.04,9.73 101.86,10.11 100.68,10.48 99.59,10.79 98.51,11.11 97.22,11.12 95.94,11.13 94.67,11.06 93.41,10.99 91.28,11.36 89.15,11.73 87.82,11.73 86.49,11.73 85.05,11.93 83.60,12.13 82.51,12.43 81.42,12.74 80.13,12.36 78.85,11.99 77.30,11.90 75.76,11.80 74.31,11.68 72.87,11.57 71.65,11.27 70.43,10.97 68.75,10.42 67.07,9.86 65.86,9.32 64.66,8.78 63.14,8.52 61.63,8.25 60.50,8.24 59.37,8.23 58.11,8.20 56.86,8.18 55.80,8.48 54.75,8.78 53.50,8.76 52.26,8.75 50.98,8.69 49.71,8.63 48.35,8.59 46.99,8.54 45.88,8.55 44.77,8.55 43.10,8.66 41.42,8.77 39.82,8.87 38.23,8.98 37.16,8.96 36.09,8.94 34.96,8.90 33.83,8.86 32.73,8.83 31.63,8.81 30.43,8.70 29.23,8.59 27.77,8.42 26.31,8.26 25.01,8.16 23.72,8.07 22.19,7.74 20.67,7.41 19.33,7.33 17.99,7.25 16.34,7.16 14.70,7.07 13.26,6.76 11.81,6.46 10.43,6.07 9.06,5.69 8.02,5.29 6.98,4.89 5.62,4.20 4.26,3.51 2.86,3.25 1.47,3.00 0.48,2.77 -0.50,2.54 -0.80,2.44 -1.10,2.34 -1.36,2.18 -1.63,2.01 -1.85,1.79 -2.06,1.56 -2.22,1.29 -2.38,1.02 -2.47,0.72 -2.55,0.42 -2.57,0.11 -2.58,-0.19 -2.52,-0.50 -2.46,-0.81 -2.33,-1.09 -2.19,-1.37 -2.00,-1.62 -1.80,-1.86 -1.55,-2.05 -1.30,-2.24 -1.01,-2.36 -0.73,-2.48 -0.42,-2.54 -0.11,-2.59 0.19,-2.56 0.50,-2.54 0.50,-2.54 L 0.50,-2.54 Z"></path></g><g transform="translate(15.503451352382626 66.28682077794838) rotate(0 44.82098691577335 5.5591921755999465)" stroke="none"><path fill="#e66000" d="M 0.97,-2.43 Q 0.97,-2.43 1.98,-2.06 2.99,-1.68 4.29,-1.60 5.59,-1.52 6.74,-1.13 7.89,-0.75 9.44,-0.92 10.99,-1.09 12.92,-0.82 14.84,-0.55 16.94,-0.25 19.04,0.03 20.93,0.61 22.82,1.19 24.27,1.33 25.73,1.48 27.63,1.79 29.53,2.11 30.85,2.11 32.17,2.12 34.29,2.49 36.41,2.85 37.55,2.80 38.69,2.74 39.92,2.73 41.15,2.72 42.55,2.70 43.95,2.68 45.20,2.67 46.44,2.65 48.47,3.06 50.51,3.47 52.30,3.82 54.09,4.17 55.37,4.16 56.65,4.16 57.73,4.65 58.82,5.14 60.65,5.58 62.48,6.02 64.11,6.05 65.75,6.07 67.35,6.49 68.96,6.91 70.11,6.90 71.26,6.89 72.35,7.28 73.43,7.67 74.81,7.60 76.19,7.52 77.25,7.18 78.32,6.85 79.54,6.80 80.75,6.76 82.10,6.76 83.44,6.75 86.38,6.39 89.32,6.03 89.91,6.12 90.50,6.21 91.03,6.49 91.56,6.77 91.98,7.20 92.39,7.63 92.65,8.17 92.90,8.72 92.97,9.31 93.04,9.90 92.91,10.49 92.79,11.07 92.48,11.59 92.18,12.10 91.72,12.49 91.27,12.88 90.71,13.11 90.16,13.33 89.56,13.37 88.97,13.40 88.39,13.25 87.81,13.09 87.31,12.76 86.82,12.42 86.45,11.95 86.09,11.48 85.89,10.91 85.70,10.34 85.70,9.75 85.69,9.15 85.88,8.58 86.07,8.01 86.43,7.53 86.79,7.06 87.28,6.72 87.77,6.38 88.35,6.22 88.92,6.05 89.52,6.08 90.12,6.11 90.68,6.33 91.23,6.55 91.69,6.93 92.15,7.32 92.46,7.83 92.77,8.34 92.90,8.92 93.03,9.50 92.97,10.10 92.91,10.69 92.66,11.24 92.42,11.78 92.01,12.22 91.60,12.66 91.07,12.94 90.54,13.22 89.95,13.32 89.37,13.42 89.37,13.42 89.37,13.42 88.23,12.98 87.10,12.54 85.27,13.31 83.44,14.09 82.13,14.08 80.81,14.08 79.75,14.05 78.69,14.01 76.94,14.37 75.20,14.73 73.98,14.69 72.76,14.64 71.43,14.29 70.09,13.95 68.75,13.84 67.40,13.73 66.19,13.40 64.97,13.08 63.91,12.97 62.85,12.87 60.85,12.42 58.85,11.98 57.54,11.86 56.23,11.74 55.04,11.48 53.84,11.23 52.57,10.88 51.31,10.52 49.98,10.43 48.66,10.34 47.55,10.09 46.44,9.84 44.85,9.83 43.26,9.81 42.19,9.79 41.13,9.77 39.83,9.74 38.53,9.71 37.00,9.64 35.47,9.57 33.76,9.27 32.05,8.97 30.61,8.86 29.18,8.76 27.35,8.45 25.52,8.15 24.31,8.11 23.10,8.07 21.64,7.69 20.19,7.30 19.17,6.97 18.15,6.63 16.94,6.31 15.73,5.99 14.16,5.63 12.59,5.26 10.82,5.22 9.05,5.18 7.93,5.10 6.82,5.01 5.28,4.54 3.74,4.07 2.37,3.68 1.00,3.28 0.01,2.86 -0.97,2.43 -1.25,2.28 -1.53,2.13 -1.76,1.92 -1.99,1.70 -2.17,1.44 -2.34,1.17 -2.45,0.88 -2.56,0.58 -2.59,0.26 -2.62,-0.04 -2.58,-0.36 -2.53,-0.67 -2.42,-0.96 -2.30,-1.26 -2.11,-1.52 -1.93,-1.77 -1.69,-1.98 -1.45,-2.18 -1.17,-2.33 -0.88,-2.47 -0.57,-2.54 -0.26,-2.61 0.04,-2.60 0.36,-2.60 0.67,-2.52 0.97,-2.43 0.97,-2.43 L 0.97,-2.43 Z"></path></g><g transform="translate(39.82491712063188 45.43985011944824) rotate(0 26.753612345073975 3.821944620724935)" stroke="none"><path fill="#e66000" d="M 2.13,-1.59 Q 2.13,-1.59 2.70,-0.85 3.28,-0.11 4.49,0.18 5.70,0.47 6.77,0.77 7.85,1.06 8.95,1.34 10.05,1.61 11.27,1.64 12.48,1.66 14.37,1.94 16.25,2.23 18.53,2.55 20.82,2.88 21.96,3.23 23.11,3.57 24.32,3.66 25.53,3.75 26.99,4.03 28.44,4.31 29.65,4.42 30.85,4.54 32.29,4.55 33.73,4.56 35.03,4.54 36.32,4.52 37.78,4.49 39.24,4.46 40.93,4.45 42.62,4.44 43.95,4.49 45.28,4.53 46.64,4.58 48.01,4.62 50.29,4.31 52.57,4.00 53.07,3.97 53.56,3.93 54.05,4.06 54.53,4.19 54.94,4.46 55.36,4.73 55.67,5.13 55.97,5.52 56.14,5.99 56.30,6.46 56.31,6.96 56.32,7.45 56.17,7.93 56.01,8.40 55.72,8.80 55.42,9.20 55.01,9.49 54.61,9.77 54.13,9.91 53.65,10.05 53.15,10.03 52.66,10.01 52.19,9.83 51.73,9.66 51.34,9.34 50.96,9.02 50.69,8.60 50.43,8.18 50.32,7.69 50.20,7.21 50.25,6.71 50.30,6.22 50.50,5.76 50.70,5.31 51.04,4.94 51.38,4.57 51.82,4.33 52.25,4.09 52.74,4.01 53.23,3.92 53.73,3.99 54.22,4.07 54.66,4.29 55.10,4.52 55.45,4.88 55.80,5.24 56.01,5.68 56.23,6.13 56.29,6.63 56.35,7.12 56.25,7.61 56.15,8.10 55.90,8.53 55.65,8.96 55.27,9.28 54.90,9.61 54.44,9.80 53.98,9.99 53.98,9.99 53.98,9.99 50.99,10.33 48.01,10.66 46.64,10.70 45.28,10.74 43.95,10.79 42.61,10.84 40.93,10.82 39.24,10.81 37.77,10.78 36.30,10.75 34.95,10.71 33.59,10.66 32.02,10.56 30.44,10.46 28.93,10.38 27.43,10.31 25.38,10.06 23.33,9.81 21.53,9.36 19.73,8.92 18.57,8.74 17.41,8.57 14.89,8.29 12.38,8.01 11.27,7.99 10.17,7.97 8.67,7.55 7.17,7.13 5.57,6.58 3.97,6.04 2.59,5.39 1.21,4.75 0.16,4.03 -0.88,3.30 -1.51,2.45 -2.13,1.59 -2.29,1.32 -2.45,1.04 -2.54,0.73 -2.63,0.42 -2.64,0.10 -2.65,-0.21 -2.59,-0.53 -2.52,-0.84 -2.38,-1.13 -2.25,-1.42 -2.04,-1.67 -1.84,-1.92 -1.58,-2.11 -1.33,-2.30 -1.03,-2.43 -0.73,-2.56 -0.42,-2.61 -0.10,-2.66 0.21,-2.63 0.53,-2.61 0.84,-2.50 1.14,-2.40 1.41,-2.23 1.68,-2.06 1.91,-1.83 2.13,-1.59 2.13,-1.59 L 2.13,-1.59 Z"></path></g><g transform="translate(84.29845452543009 41.965355009697305) rotate(0 14.940328971924373 1.042348532925189)" stroke="none"><path fill="#e66000" d="M 0.27,-2.46 Q 0.27,-2.46 2.06,-2.20 3.85,-1.93 5.33,-1.64 6.80,-1.36 8.60,-1.16 10.41,-0.96 12.25,-1.01 14.10,-1.06 16.05,-1.13 17.99,-1.21 19.12,-1.01 20.25,-0.81 21.38,-0.80 22.51,-0.78 24.22,-0.81 25.93,-0.83 27.77,-0.84 29.62,-0.85 30.09,-0.78 30.56,-0.70 30.98,-0.48 31.40,-0.25 31.72,0.08 32.05,0.43 32.25,0.86 32.45,1.30 32.50,1.77 32.55,2.24 32.45,2.71 32.35,3.17 32.10,3.58 31.85,3.99 31.49,4.30 31.13,4.60 30.68,4.78 30.24,4.96 29.77,4.98 29.29,5.01 28.83,4.88 28.37,4.75 27.98,4.48 27.59,4.21 27.30,3.83 27.01,3.45 26.86,3.00 26.71,2.55 26.71,2.08 26.71,1.60 26.86,1.15 27.01,0.70 27.30,0.32 27.59,-0.05 27.99,-0.32 28.38,-0.58 28.84,-0.71 29.30,-0.84 29.77,-0.81 30.25,-0.78 30.69,-0.61 31.13,-0.43 31.50,-0.12 31.86,0.18 32.10,0.59 32.35,0.99 32.45,1.46 32.55,1.92 32.50,2.40 32.45,2.87 32.25,3.30 32.05,3.73 31.72,4.08 31.39,4.43 30.97,4.65 30.55,4.87 30.08,4.95 29.61,5.02 29.61,5.02 29.61,5.02 26.93,4.97 24.25,4.92 22.28,4.80 20.30,4.68 19.12,4.33 17.94,3.98 15.96,3.88 13.98,3.78 12.06,3.58 10.14,3.38 7.99,3.34 5.84,3.29 4.58,3.01 3.33,2.73 1.53,2.59 -0.27,2.46 -0.56,2.40 -0.85,2.33 -1.12,2.19 -1.39,2.05 -1.61,1.86 -1.84,1.66 -2.01,1.42 -2.18,1.17 -2.29,0.89 -2.40,0.61 -2.44,0.32 -2.48,0.02 -2.45,-0.27 -2.41,-0.57 -2.31,-0.85 -2.21,-1.13 -2.04,-1.38 -1.87,-1.62 -1.65,-1.82 -1.43,-2.03 -1.16,-2.17 -0.90,-2.31 -0.61,-2.38 -0.32,-2.46 -0.02,-2.46 0.27,-2.46 0.27,-2.46 L 0.27,-2.46 Z"></path></g><g transform="translate(106.53522322782942 55.168436426747576) rotate(0 20.846970658499117 -4.169394131699846)" stroke="none"><path fill="#e66000" d="M -0.21,-2.31 Q -0.21,-2.31 1.99,-2.37 4.20,-2.44 6.39,-2.43 8.58,-2.42 10.91,-2.38 13.24,-2.35 14.62,-2.44 16.00,-2.54 17.73,-2.71 19.46,-2.88 21.19,-3.01 22.93,-3.13 24.75,-3.22 26.57,-3.31 27.85,-3.98 29.12,-4.65 30.20,-5.12 31.28,-5.59 32.56,-6.27 33.84,-6.95 35.06,-7.56 36.28,-8.17 38.26,-9.77 40.25,-11.38 40.78,-11.50 41.31,-11.62 41.85,-11.57 42.39,-11.52 42.89,-11.30 43.38,-11.08 43.78,-10.71 44.18,-10.34 44.44,-9.86 44.70,-9.38 44.80,-8.85 44.89,-8.31 44.81,-7.77 44.73,-7.24 44.48,-6.75 44.23,-6.27 43.84,-5.89 43.45,-5.51 42.96,-5.28 42.47,-5.04 41.93,-4.98 41.39,-4.91 40.86,-5.02 40.33,-5.13 39.86,-5.40 39.39,-5.68 39.03,-6.09 38.67,-6.50 38.47,-7.00 38.26,-7.50 38.22,-8.05 38.18,-8.59 38.32,-9.11 38.46,-9.64 38.76,-10.09 39.06,-10.55 39.49,-10.88 39.92,-11.22 40.43,-11.40 40.94,-11.58 41.49,-11.59 42.03,-11.59 42.55,-11.43 43.07,-11.26 43.51,-10.94 43.94,-10.61 44.25,-10.17 44.56,-9.72 44.72,-9.20 44.87,-8.68 44.85,-8.13 44.82,-7.59 44.63,-7.08 44.43,-6.57 44.09,-6.15 43.74,-5.73 43.28,-5.45 42.82,-5.16 42.82,-5.16 42.82,-5.16 41.65,-4.53 40.49,-3.90 38.92,-2.87 37.35,-1.84 35.80,-1.05 34.24,-0.25 33.00,-0.08 31.76,0.09 30.72,0.76 29.69,1.43 28.13,1.67 26.57,1.92 24.75,1.83 22.93,1.74 21.20,1.62 19.47,1.50 17.76,1.35 16.04,1.19 14.67,1.13 13.29,1.06 11.01,1.17 8.73,1.28 6.65,1.46 4.58,1.64 2.39,1.97 0.21,2.31 -0.06,2.30 -0.34,2.29 -0.61,2.21 -0.88,2.14 -1.13,2.00 -1.37,1.86 -1.57,1.67 -1.78,1.48 -1.93,1.25 -2.08,1.01 -2.17,0.75 -2.26,0.48 -2.29,0.20 -2.31,-0.07 -2.27,-0.34 -2.23,-0.62 -2.12,-0.88 -2.02,-1.13 -1.85,-1.36 -1.68,-1.59 -1.47,-1.76 -1.25,-1.94 -1.00,-2.07 -0.75,-2.19 -0.48,-2.25 -0.20,-2.31 -0.20,-2.31 L -0.21,-2.31 Z"></path></g><g transform="translate(55.112695603531165 32.236768702399786) rotate(0 8.686237774374604 -0.6948990219498228)" stroke="none"><path fill="#e66000" d="M -0.23,-2.53 Q -0.23,-2.53 1.98,-2.57 4.19,-2.61 5.34,-2.75 6.48,-2.89 7.70,-3.05 8.92,-3.21 10.40,-3.61 11.88,-4.01 13.10,-4.14 14.32,-4.27 16.06,-4.29 17.80,-4.32 18.27,-4.24 18.74,-4.17 19.16,-3.95 19.58,-3.73 19.91,-3.38 20.23,-3.04 20.43,-2.61 20.64,-2.18 20.69,-1.71 20.74,-1.23 20.64,-0.77 20.54,-0.31 20.30,0.09 20.05,0.50 19.69,0.81 19.33,1.12 18.89,1.29 18.45,1.47 17.97,1.50 17.50,1.53 17.04,1.40 16.58,1.27 16.19,1.01 15.80,0.74 15.51,0.37 15.22,-0.00 15.07,-0.45 14.91,-0.90 14.91,-1.38 14.91,-1.85 15.06,-2.30 15.21,-2.75 15.50,-3.13 15.78,-3.51 16.18,-3.78 16.57,-4.04 17.03,-4.17 17.48,-4.30 17.96,-4.28 18.43,-4.25 18.87,-4.08 19.32,-3.90 19.68,-3.60 20.04,-3.29 20.29,-2.88 20.53,-2.48 20.64,-2.01 20.74,-1.55 20.69,-1.08 20.64,-0.61 20.44,-0.17 20.24,0.25 19.92,0.59 19.59,0.94 19.17,1.16 18.75,1.39 18.29,1.46 17.82,1.54 17.82,1.54 17.82,1.54 16.14,1.54 14.47,1.53 13.16,1.49 11.85,1.45 10.47,1.66 9.08,1.86 7.96,1.81 6.83,1.75 5.71,1.78 4.59,1.81 2.41,2.17 0.23,2.53 -0.07,2.52 -0.38,2.51 -0.67,2.42 -0.97,2.34 -1.23,2.19 -1.50,2.04 -1.72,1.83 -1.95,1.62 -2.11,1.36 -2.28,1.11 -2.38,0.82 -2.48,0.53 -2.51,0.22 -2.53,-0.07 -2.49,-0.37 -2.44,-0.68 -2.33,-0.96 -2.21,-1.24 -2.03,-1.49 -1.85,-1.74 -1.61,-1.93 -1.37,-2.13 -1.10,-2.26 -0.82,-2.40 -0.52,-2.46 -0.22,-2.53 -0.22,-2.53 L -0.23,-2.53 Z"></path></g><g transform="translate(91.24744474492968 21.813283373148806) rotate(0 21.889319191424192 3.82194462072448)" stroke="none"><path fill="#e66000" d="M 0,-2.24 Q 0,-2.24 2.39,-2.11 4.79,-1.99 7.21,-1.90 9.62,-1.81 11.45,-1.81 13.28,-1.81 14.65,-1.88 16.03,-1.95 17.81,-1.95 19.60,-1.94 21.15,-1.98 22.71,-2.01 24.14,-2.15 25.56,-2.29 27.39,-2.16 29.21,-2.02 30.37,-1.52 31.53,-1.01 32.77,-0.65 34.00,-0.30 35.35,-0.09 36.71,0.11 37.90,0.90 39.10,1.70 40.06,2.57 41.01,3.43 43.18,4.16 45.34,4.90 45.71,5.25 46.08,5.60 46.31,6.06 46.55,6.51 46.63,7.01 46.70,7.51 46.62,8.02 46.53,8.52 46.29,8.97 46.05,9.41 45.67,9.76 45.30,10.11 44.84,10.32 44.37,10.53 43.87,10.58 43.36,10.63 42.86,10.52 42.37,10.40 41.93,10.14 41.50,9.87 41.17,9.48 40.85,9.09 40.66,8.62 40.48,8.14 40.45,7.63 40.43,7.12 40.57,6.63 40.71,6.14 41.00,5.72 41.29,5.31 41.70,5.00 42.10,4.70 42.59,4.54 43.07,4.38 43.58,4.38 44.09,4.39 44.57,4.55 45.05,4.72 45.46,5.03 45.86,5.34 46.14,5.77 46.42,6.19 46.56,6.68 46.69,7.17 46.66,7.68 46.62,8.19 46.43,8.66 46.24,9.13 45.91,9.52 45.57,9.90 45.14,10.16 44.70,10.42 44.20,10.53 43.70,10.63 43.19,10.57 42.69,10.51 42.23,10.30 41.77,10.08 41.77,10.08 41.77,10.08 40.67,9.58 39.57,9.08 38.27,8.09 36.96,7.11 36.15,6.17 35.33,5.22 33.97,4.94 32.61,4.66 30.96,4.20 29.32,3.74 27.44,3.02 25.56,2.29 24.14,2.15 22.71,2.01 21.15,1.98 19.60,1.94 17.81,1.95 16.03,1.95 14.65,1.88 13.28,1.81 11.45,1.81 9.62,1.81 7.21,1.90 4.79,1.99 2.39,2.11 0,2.24 -0.26,2.20 -0.53,2.17 -0.78,2.08 -1.04,1.98 -1.26,1.83 -1.48,1.67 -1.66,1.47 -1.84,1.27 -1.96,1.03 -2.09,0.79 -2.16,0.53 -2.22,0.27 -2.22,-0.00 -2.22,-0.27 -2.15,-0.53 -2.09,-0.79 -1.96,-1.03 -1.84,-1.27 -1.66,-1.47 -1.48,-1.67 -1.26,-1.83 -1.04,-1.98 -0.78,-2.08 -0.53,-2.17 -0.26,-2.20 0.00,-2.24 0.00,-2.24 L 0,-2.24 Z"></path></g><g transform="translate(112.78931442537873 31.541869680449963) rotate(0 2.084697065849923 0.6948990219498228)" stroke="none"><path d="M-0.4 -0.34 C-0.4 -0.34, -0.4 -0.34, -0.4 -0.34 M-0.4 -0.34 C-0.4 -0.34, -0.4 -0.34, -0.4 -0.34 M2.63 2.25 C2.92 1.77, 3.27 1.32, 3.79 0.9 M2.67 2.38 C2.92 1.9, 3.17 1.63, 3.86 0.83" stroke="#ced4da" stroke-width="0.5" fill="none"></path><path fill="#e66000" d="M 0.47,-2.39 Q 0.47,-2.39 1.48,-2.24 2.49,-2.08 2.38,-2.14 2.27,-2.20 2.58,-2.12 2.90,-2.04 3.18,-1.88 3.47,-1.73 3.71,-1.51 3.95,-1.29 4.13,-1.02 4.31,-0.75 4.42,-0.45 4.53,-0.14 4.56,0.17 4.60,0.49 4.56,0.82 4.51,1.14 4.39,1.44 4.27,1.74 4.08,2.01 3.90,2.27 3.65,2.48 3.40,2.69 3.11,2.84 2.83,2.99 2.51,3.06 2.19,3.13 1.87,3.13 1.54,3.12 1.01,2.93 0.47,2.73 0.15,2.45 -0.17,2.16 -0.39,1.78 -0.60,1.40 -0.69,0.98 -0.77,0.55 -0.72,0.12 -0.66,-0.31 -0.47,-0.70 -0.28,-1.09 0.01,-1.40 0.32,-1.71 0.71,-1.91 1.10,-2.10 1.53,-2.16 1.96,-2.23 2.39,-2.15 2.82,-2.07 3.20,-1.86 3.58,-1.64 3.87,-1.32 4.17,-1.00 4.34,-0.60 4.52,-0.20 4.55,0.22 4.59,0.66 4.49,1.08 4.39,1.50 4.16,1.87 3.92,2.24 3.59,2.52 3.25,2.79 2.84,2.94 2.43,3.10 2.00,3.11 1.56,3.13 1.14,3.00 0.73,2.88 0.37,2.62 0.02,2.37 -0.23,2.02 -0.49,1.67 -0.62,1.25 -0.75,0.84 -0.74,0.40 -0.73,-0.02 -0.58,-0.43 -0.44,-0.84 -0.17,-1.18 0.10,-1.53 0.46,-1.76 0.83,-2.00 1.25,-2.11 1.67,-2.22 2.10,-2.18 2.54,-2.15 2.40,-2.18 2.27,-2.20 2.58,-2.12 2.90,-2.04 3.18,-1.88 3.47,-1.73 3.71,-1.51 3.95,-1.29 4.13,-1.02 4.31,-0.75 4.42,-0.45 4.53,-0.14 4.56,0.17 4.60,0.49 4.56,0.82 4.51,1.14 4.39,1.44 4.27,1.74 4.08,2.01 3.90,2.27 3.65,2.48 3.40,2.69 3.11,2.84 2.83,2.99 2.51,3.06 2.19,3.13 1.87,3.13 1.54,3.12 1.52,3.00 1.50,2.88 0.51,2.64 -0.47,2.39 -0.75,2.30 -1.03,2.21 -1.28,2.05 -1.53,1.90 -1.74,1.68 -1.94,1.47 -2.09,1.22 -2.24,0.96 -2.32,0.68 -2.41,0.40 -2.42,0.10 -2.43,-0.18 -2.38,-0.47 -2.32,-0.76 -2.19,-1.03 -2.07,-1.29 -1.88,-1.52 -1.70,-1.75 -1.46,-1.93 -1.23,-2.11 -0.96,-2.23 -0.68,-2.34 -0.39,-2.39 -0.10,-2.44 0.18,-2.42 0.47,-2.39 0.47,-2.39 L 0.47,-2.39 Z"></path></g><g transform="translate(163.55559478527243 70.33371878507478) rotate(179.53794727856936 -0.36666666666667425 4.547473508864641e-13)" stroke="none"><path d="M-0.45 -0.39 C-0.45 -0.39, -0.45 -0.39, -0.45 -0.39 M-0.45 -0.39 C-0.45 -0.39, -0.45 -0.39, -0.45 -0.39" stroke="#ced4da" stroke-width="0.5" fill="none"></path><path fill="#e66000" d="M -0.54,2.29 Q -0.54,2.29 -0.90,2.21 -1.27,2.13 -1.59,1.94 -1.91,1.75 -2.16,1.47 -2.41,1.19 -2.55,0.84 -2.69,0.50 -2.71,0.12 -2.74,-0.24 -2.64,-0.60 -2.55,-0.96 -2.34,-1.28 -2.13,-1.59 -1.84,-1.82 -1.54,-2.05 -1.19,-2.17 -0.83,-2.29 -0.46,-2.30 -0.09,-2.30 0.26,-2.19 0.62,-2.07 0.92,-1.85 1.22,-1.62 1.43,-1.32 1.64,-1.01 1.75,-0.65 1.85,-0.29 1.84,0.08 1.82,0.45 1.68,0.80 1.55,1.15 1.31,1.44 1.07,1.72 0.75,1.92 0.43,2.12 0.07,2.20 -0.29,2.28 -0.66,2.25 -1.03,2.21 -1.37,2.06 -1.71,1.90 -1.99,1.65 -2.26,1.40 -2.44,1.07 -2.62,0.74 -2.68,0.37 -2.75,0.00 -2.69,-0.36 -2.64,-0.73 -2.46,-1.06 -2.29,-1.39 -2.02,-1.66 -1.75,-1.92 -1.42,-2.08 -1.08,-2.24 -0.71,-2.28 -0.33,-2.33 -0.33,-2.33 -0.34,-2.33 -0.05,-2.33 0.22,-2.34 0.50,-2.28 0.78,-2.22 1.03,-2.09 1.29,-1.97 1.50,-1.78 1.72,-1.60 1.89,-1.37 2.05,-1.14 2.16,-0.88 2.27,-0.61 2.31,-0.33 2.35,-0.05 2.32,0.22 2.29,0.50 2.20,0.77 2.11,1.04 1.95,1.28 1.80,1.51 1.59,1.71 1.38,1.90 1.13,2.04 0.88,2.18 0.61,2.25 0.34,2.33 -0.10,2.31 L -0.54,2.29 Z"></path></g><g transform="translate(175.17276108171382 82.2344536369501) rotate(179.53794727856936 -6.3587696552446005 -6.236485623412591)" stroke="none"><path fill="#e66000" d="M 0.25,2.57 Q 0.25,2.57 -0.44,2.68 -1.14,2.79 -2.22,2.94 -3.30,3.08 -4.96,3.03 -6.63,2.97 -7.87,2.75 -9.11,2.53 -10.30,2.29 -11.50,2.04 -12.46,1.35 -13.43,0.67 -14.15,-0.27 -14.88,-1.21 -15.36,-2.42 -15.85,-3.63 -16.00,-4.69 -16.15,-5.75 -15.55,-7.04 -14.96,-8.32 -14.00,-9.57 -13.04,-10.81 -12.33,-11.79 -11.62,-12.78 -10.65,-13.57 -9.68,-14.35 -8.45,-14.91 -7.21,-15.48 -4.75,-15.96 -2.29,-16.44 -1.68,-16.39 -1.08,-16.34 -0.52,-16.09 0.02,-15.85 0.47,-15.44 0.92,-15.04 1.21,-14.51 1.51,-13.98 1.62,-13.38 1.73,-12.78 1.64,-12.18 1.55,-11.58 1.28,-11.04 1.01,-10.50 0.58,-10.08 0.15,-9.65 -0.39,-9.38 -0.93,-9.12 -1.54,-9.04 -2.14,-8.96 -2.73,-9.08 -3.33,-9.20 -3.85,-9.50 -4.38,-9.80 -4.78,-10.26 -5.18,-10.71 -5.42,-11.27 -5.65,-11.83 -5.70,-12.43 -5.74,-13.04 -5.59,-13.63 -5.44,-14.21 -5.11,-14.72 -4.78,-15.23 -4.31,-15.61 -3.83,-15.98 -3.26,-16.19 -2.69,-16.39 -2.08,-16.40 -1.48,-16.42 -0.90,-16.23 -0.32,-16.05 0.16,-15.70 0.65,-15.34 1.00,-14.84 1.35,-14.35 1.52,-13.77 1.70,-13.19 1.68,-12.58 1.66,-11.98 1.44,-11.41 1.23,-10.84 0.85,-10.37 0.46,-9.90 -0.04,-9.58 -0.55,-9.26 -1.14,-9.11 -1.73,-8.97 -1.73,-8.97 -1.73,-8.97 -2.81,-8.87 -3.89,-8.76 -4.96,-8.48 -6.03,-8.20 -6.98,-7.34 -7.94,-6.49 -9.02,-5.38 -10.11,-4.27 -9.33,-5.13 -8.55,-5.99 -9.07,-4.97 -9.59,-3.95 -9.89,-5.44 -10.19,-6.92 -9.85,-5.40 -9.51,-3.89 -8.22,-3.57 -6.94,-3.25 -5.45,-2.95 -3.96,-2.64 -2.81,-2.58 -1.67,-2.51 -0.96,-2.54 -0.25,-2.57 0.05,-2.56 0.36,-2.55 0.66,-2.47 0.96,-2.39 1.23,-2.24 1.51,-2.09 1.74,-1.88 1.96,-1.67 2.14,-1.41 2.31,-1.15 2.41,-0.85 2.52,-0.56 2.55,-0.25 2.58,0.05 2.53,0.36 2.49,0.67 2.37,0.96 2.26,1.24 2.07,1.50 1.89,1.75 1.65,1.95 1.42,2.15 1.14,2.29 0.86,2.43 0.56,2.50 0.25,2.57 0.25,2.57 L 0.25,2.57 Z"></path></g><g transform="translate(25.43883929952881 129.53580774452257) rotate(179.53794727856936 68.44755366207232 -21.889319191423965)" stroke="none"><path fill="#e66000" d="M -2.58,0 Q -2.58,0 -2.54,-1.60 -2.50,-3.20 -2.30,-4.67 -2.10,-6.14 -2.08,-7.30 -2.06,-8.46 -2.13,-9.53 -2.19,-10.60 -1.95,-12.01 -1.71,-13.41 -0.98,-15.22 -0.25,-17.02 0.49,-18.31 1.23,-19.59 2.20,-20.70 3.16,-21.80 3.90,-22.84 4.64,-23.88 5.37,-24.68 6.09,-25.48 7.06,-26.47 8.02,-27.46 8.87,-28.38 9.72,-29.30 10.73,-29.99 11.74,-30.68 12.79,-31.42 13.85,-32.15 15.07,-33.08 16.30,-34.01 17.70,-34.69 19.10,-35.37 20.14,-35.92 21.18,-36.47 22.57,-36.98 23.96,-37.49 25.46,-38.08 26.96,-38.66 28.98,-39.07 31.00,-39.48 33.71,-40.09 36.41,-40.70 38.28,-41.07 40.16,-41.44 41.49,-41.70 42.83,-41.97 43.86,-42.26 44.88,-42.55 47.03,-42.60 49.17,-42.66 50.60,-42.71 52.03,-42.77 53.49,-43.15 54.95,-43.53 57.87,-43.98 60.78,-44.43 62.04,-44.59 63.29,-44.75 65.51,-45.23 67.73,-45.71 69.37,-46.12 71.02,-46.53 72.24,-46.61 73.47,-46.69 74.79,-46.76 76.12,-46.83 77.61,-46.78 79.10,-46.72 80.53,-46.68 81.96,-46.64 83.80,-46.68 85.63,-46.72 87.28,-46.50 88.92,-46.28 89.99,-45.93 91.06,-45.59 93.04,-45.06 95.01,-44.53 96.41,-44.11 97.80,-43.69 98.98,-43.30 100.15,-42.90 101.49,-42.46 102.82,-42.02 104.17,-41.37 105.52,-40.71 106.98,-39.85 108.45,-38.99 110.10,-37.64 111.75,-36.28 112.77,-35.70 113.79,-35.12 114.80,-34.29 115.82,-33.46 117.01,-32.87 118.20,-32.29 119.03,-31.58 119.85,-30.86 121.07,-29.81 122.29,-28.77 123.43,-27.77 124.57,-26.77 125.56,-25.90 126.55,-25.03 127.81,-24.06 129.06,-23.10 130.13,-22.09 131.19,-21.09 132.04,-19.96 132.88,-18.84 133.82,-17.88 134.75,-16.91 135.97,-15.32 137.19,-13.72 137.96,-12.21 138.73,-10.70 138.88,-9.62 139.03,-8.54 139.79,-5.51 140.54,-2.49 140.47,-1.90 140.39,-1.32 140.13,-0.78 139.88,-0.25 139.46,0.17 139.05,0.59 138.52,0.86 137.99,1.13 137.41,1.21 136.82,1.30 136.24,1.20 135.66,1.09 135.14,0.80 134.62,0.52 134.22,0.08 133.82,-0.34 133.58,-0.89 133.34,-1.43 133.28,-2.02 133.23,-2.61 133.36,-3.18 133.50,-3.76 133.81,-4.26 134.13,-4.77 134.58,-5.14 135.04,-5.52 135.60,-5.73 136.15,-5.94 136.74,-5.96 137.33,-5.99 137.90,-5.82 138.47,-5.65 138.96,-5.31 139.44,-4.97 139.79,-4.49 140.14,-4.01 140.32,-3.45 140.50,-2.89 140.49,-2.29 140.48,-1.70 140.29,-1.14 140.09,-0.58 139.72,-0.12 139.35,0.34 138.86,0.66 138.36,0.99 137.79,1.14 137.22,1.29 136.63,1.24 136.03,1.20 135.49,0.97 134.94,0.75 134.50,0.35 134.05,-0.03 133.75,-0.54 133.46,-1.05 133.34,-1.63 133.22,-2.21 133.22,-2.21 133.22,-2.21 133.33,-2.85 133.45,-3.49 133.12,-5.42 132.79,-7.36 131.90,-8.97 131.01,-10.57 129.98,-11.62 128.95,-12.66 128.16,-13.52 127.37,-14.38 126.58,-15.47 125.78,-16.57 124.80,-17.54 123.81,-18.50 122.93,-19.14 122.05,-19.79 121.06,-20.74 120.07,-21.70 119.10,-22.56 118.13,-23.41 116.79,-24.52 115.45,-25.63 114.17,-26.64 112.88,-27.65 111.45,-28.71 110.01,-29.77 108.93,-30.44 107.85,-31.12 106.24,-32.59 104.63,-34.06 103.61,-34.66 102.60,-35.25 101.18,-35.98 99.76,-36.70 98.08,-37.36 96.40,-38.02 93.82,-38.67 91.23,-39.32 89.69,-39.64 88.14,-39.97 86.89,-40.40 85.64,-40.83 83.80,-40.87 81.97,-40.90 80.54,-40.86 79.12,-40.82 77.01,-40.77 74.91,-40.72 73.57,-40.73 72.23,-40.74 71.03,-40.47 69.83,-40.19 68.44,-40.21 67.04,-40.24 65.44,-39.94 63.84,-39.64 62.72,-39.54 61.60,-39.45 59.84,-39.05 58.09,-38.66 56.39,-38.38 54.69,-38.10 53.47,-37.89 52.24,-37.67 50.88,-37.61 49.52,-37.56 47.92,-37.36 46.32,-37.16 45.11,-36.84 43.91,-36.53 42.81,-36.32 41.72,-36.11 39.77,-35.34 37.81,-34.58 36.37,-34.13 34.94,-33.68 33.39,-33.10 31.84,-32.51 30.41,-32.28 28.98,-32.05 27.84,-31.56 26.69,-31.07 25.11,-30.53 23.53,-29.98 21.94,-29.14 20.35,-28.30 19.29,-27.45 18.22,-26.59 16.83,-25.58 15.45,-24.56 13.91,-23.69 12.37,-22.82 11.37,-21.48 10.36,-20.14 9.42,-19.22 8.48,-18.31 7.34,-16.90 6.20,-15.49 5.53,-14.63 4.87,-13.78 4.22,-12.17 3.58,-10.56 3.46,-9.32 3.34,-8.08 3.12,-6.72 2.90,-5.36 2.70,-4.27 2.50,-3.19 2.54,-1.59 2.58,0 2.54,0.30 2.50,0.61 2.39,0.90 2.28,1.20 2.11,1.45 1.93,1.71 1.70,1.92 1.46,2.12 1.19,2.27 0.91,2.41 0.61,2.49 0.31,2.56 -0.00,2.56 -0.31,2.56 -0.61,2.49 -0.91,2.41 -1.19,2.27 -1.46,2.12 -1.70,1.91 -1.93,1.71 -2.11,1.45 -2.28,1.20 -2.39,0.90 -2.50,0.61 -2.54,0.30 -2.58,-0.00 -2.58,-0.00 L -2.58,0 Z"></path></g><g transform="translate(94.78774161005254 86.22847959201408) rotate(179.53794727856936 26.753612345073975 3.821944620724935)" stroke="none"><path fill="#e66000" d="M 2.13,-1.59 Q 2.13,-1.59 2.70,-0.85 3.28,-0.11 4.49,0.18 5.70,0.47 6.77,0.77 7.85,1.06 8.95,1.34 10.05,1.61 11.27,1.64 12.48,1.66 14.37,1.94 16.25,2.23 18.53,2.55 20.82,2.88 21.96,3.23 23.11,3.57 24.32,3.66 25.53,3.75 26.99,4.03 28.44,4.31 29.65,4.42 30.85,4.54 32.29,4.55 33.73,4.56 35.03,4.54 36.32,4.52 37.78,4.49 39.24,4.46 40.93,4.45 42.62,4.44 43.95,4.49 45.28,4.53 46.64,4.58 48.01,4.62 50.29,4.31 52.57,4.00 53.07,3.97 53.56,3.93 54.05,4.06 54.53,4.19 54.94,4.46 55.36,4.73 55.67,5.13 55.97,5.52 56.14,5.99 56.30,6.46 56.31,6.96 56.32,7.45 56.17,7.93 56.01,8.40 55.72,8.80 55.42,9.20 55.01,9.49 54.61,9.77 54.13,9.91 53.65,10.05 53.15,10.03 52.66,10.01 52.19,9.83 51.73,9.66 51.34,9.34 50.96,9.02 50.69,8.60 50.43,8.18 50.32,7.69 50.20,7.21 50.25,6.71 50.30,6.22 50.50,5.76 50.70,5.31 51.04,4.94 51.38,4.57 51.82,4.33 52.25,4.09 52.74,4.01 53.23,3.92 53.73,3.99 54.22,4.07 54.66,4.29 55.10,4.52 55.45,4.88 55.80,5.24 56.01,5.68 56.23,6.13 56.29,6.63 56.35,7.12 56.25,7.61 56.15,8.10 55.90,8.53 55.65,8.96 55.27,9.28 54.90,9.61 54.44,9.80 53.98,9.99 53.98,9.99 53.98,9.99 50.99,10.33 48.01,10.66 46.64,10.70 45.28,10.74 43.95,10.79 42.61,10.84 40.93,10.82 39.24,10.81 37.77,10.78 36.30,10.75 34.95,10.71 33.59,10.66 32.02,10.56 30.44,10.46 28.93,10.38 27.43,10.31 25.38,10.06 23.33,9.81 21.53,9.36 19.73,8.92 18.57,8.74 17.41,8.57 14.89,8.29 12.38,8.01 11.27,7.99 10.17,7.97 8.67,7.55 7.17,7.13 5.57,6.58 3.97,6.04 2.59,5.39 1.21,4.75 0.16,4.03 -0.88,3.30 -1.51,2.45 -2.13,1.59 -2.29,1.32 -2.45,1.04 -2.54,0.73 -2.63,0.42 -2.64,0.10 -2.65,-0.21 -2.59,-0.53 -2.52,-0.84 -2.38,-1.13 -2.25,-1.42 -2.04,-1.67 -1.84,-1.92 -1.58,-2.11 -1.33,-2.30 -1.03,-2.43 -0.73,-2.56 -0.42,-2.61 -0.10,-2.66 0.21,-2.63 0.53,-2.61 0.84,-2.50 1.14,-2.40 1.41,-2.23 1.68,-2.06 1.91,-1.83 2.13,-1.59 2.13,-1.59 L 2.13,-1.59 Z"></path></g><g transform="translate(73.99226753207677 95.52534409632153) rotate(179.53794727856936 14.940328971924373 1.042348532925189)" stroke="none"><path fill="#e66000" d="M 0.27,-2.46 Q 0.27,-2.46 2.06,-2.20 3.85,-1.93 5.33,-1.64 6.80,-1.36 8.60,-1.16 10.41,-0.96 12.25,-1.01 14.10,-1.06 16.05,-1.13 17.99,-1.21 19.12,-1.01 20.25,-0.81 21.38,-0.80 22.51,-0.78 24.22,-0.81 25.93,-0.83 27.77,-0.84 29.62,-0.85 30.09,-0.78 30.56,-0.70 30.98,-0.48 31.40,-0.25 31.72,0.08 32.05,0.43 32.25,0.86 32.45,1.30 32.50,1.77 32.55,2.24 32.45,2.71 32.35,3.17 32.10,3.58 31.85,3.99 31.49,4.30 31.13,4.60 30.68,4.78 30.24,4.96 29.77,4.98 29.29,5.01 28.83,4.88 28.37,4.75 27.98,4.48 27.59,4.21 27.30,3.83 27.01,3.45 26.86,3.00 26.71,2.55 26.71,2.08 26.71,1.60 26.86,1.15 27.01,0.70 27.30,0.32 27.59,-0.05 27.99,-0.32 28.38,-0.58 28.84,-0.71 29.30,-0.84 29.77,-0.81 30.25,-0.78 30.69,-0.61 31.13,-0.43 31.50,-0.12 31.86,0.18 32.10,0.59 32.35,0.99 32.45,1.46 32.55,1.92 32.50,2.40 32.45,2.87 32.25,3.30 32.05,3.73 31.72,4.08 31.39,4.43 30.97,4.65 30.55,4.87 30.08,4.95 29.61,5.02 29.61,5.02 29.61,5.02 26.93,4.97 24.25,4.92 22.28,4.80 20.30,4.68 19.12,4.33 17.94,3.98 15.96,3.88 13.98,3.78 12.06,3.58 10.14,3.38 7.99,3.34 5.84,3.29 4.58,3.01 3.33,2.73 1.53,2.59 -0.27,2.46 -0.56,2.40 -0.85,2.33 -1.12,2.19 -1.39,2.05 -1.61,1.86 -1.84,1.66 -2.01,1.42 -2.18,1.17 -2.29,0.89 -2.40,0.61 -2.44,0.32 -2.48,0.02 -2.45,-0.27 -2.41,-0.57 -2.31,-0.85 -2.21,-1.13 -2.04,-1.38 -1.87,-1.62 -1.65,-1.82 -1.43,-2.03 -1.16,-2.17 -0.90,-2.31 -0.61,-2.38 -0.32,-2.46 -0.02,-2.46 0.27,-2.46 0.27,-2.46 L 0.27,-2.46 Z"></path></g><g transform="translate(39.878686400536026 92.97296346682015) rotate(179.53794727856936 20.846970658499117 -4.169394131699846)" stroke="none"><path fill="#e66000" d="M -0.21,-2.31 Q -0.21,-2.31 1.99,-2.37 4.20,-2.44 6.39,-2.43 8.58,-2.42 10.91,-2.38 13.24,-2.35 14.62,-2.44 16.00,-2.54 17.73,-2.71 19.46,-2.88 21.19,-3.01 22.93,-3.13 24.75,-3.22 26.57,-3.31 27.85,-3.98 29.12,-4.65 30.20,-5.12 31.28,-5.59 32.56,-6.27 33.84,-6.95 35.06,-7.56 36.28,-8.17 38.26,-9.77 40.25,-11.38 40.78,-11.50 41.31,-11.62 41.85,-11.57 42.39,-11.52 42.89,-11.30 43.38,-11.08 43.78,-10.71 44.18,-10.34 44.44,-9.86 44.70,-9.38 44.80,-8.85 44.89,-8.31 44.81,-7.77 44.73,-7.24 44.48,-6.75 44.23,-6.27 43.84,-5.89 43.45,-5.51 42.96,-5.28 42.47,-5.04 41.93,-4.98 41.39,-4.91 40.86,-5.02 40.33,-5.13 39.86,-5.40 39.39,-5.68 39.03,-6.09 38.67,-6.50 38.47,-7.00 38.26,-7.50 38.22,-8.05 38.18,-8.59 38.32,-9.11 38.46,-9.64 38.76,-10.09 39.06,-10.55 39.49,-10.88 39.92,-11.22 40.43,-11.40 40.94,-11.58 41.49,-11.59 42.03,-11.59 42.55,-11.43 43.07,-11.26 43.51,-10.94 43.94,-10.61 44.25,-10.17 44.56,-9.72 44.72,-9.20 44.87,-8.68 44.85,-8.13 44.82,-7.59 44.63,-7.08 44.43,-6.57 44.09,-6.15 43.74,-5.73 43.28,-5.45 42.82,-5.16 42.82,-5.16 42.82,-5.16 41.65,-4.53 40.49,-3.90 38.92,-2.87 37.35,-1.84 35.80,-1.05 34.24,-0.25 33.00,-0.08 31.76,0.09 30.72,0.76 29.69,1.43 28.13,1.67 26.57,1.92 24.75,1.83 22.93,1.74 21.20,1.62 19.47,1.50 17.76,1.35 16.04,1.19 14.67,1.13 13.29,1.06 11.01,1.17 8.73,1.28 6.65,1.46 4.58,1.64 2.39,1.97 0.21,2.31 -0.06,2.30 -0.34,2.29 -0.61,2.21 -0.88,2.14 -1.13,2.00 -1.37,1.86 -1.57,1.67 -1.78,1.48 -1.93,1.25 -2.08,1.01 -2.17,0.75 -2.26,0.48 -2.29,0.20 -2.31,-0.07 -2.27,-0.34 -2.23,-0.62 -2.12,-0.88 -2.02,-1.13 -1.85,-1.36 -1.68,-1.59 -1.47,-1.76 -1.25,-1.94 -1.00,-2.07 -0.75,-2.19 -0.48,-2.25 -0.20,-2.31 -0.20,-2.31 L -0.21,-2.31 Z"></path></g><g transform="translate(115.77751986020576 108.44225673368601) rotate(179.53794727856936 8.686237774374604 -0.6948990219498228)" stroke="none"><path fill="#e66000" d="M -0.23,-2.53 Q -0.23,-2.53 1.98,-2.57 4.19,-2.61 5.34,-2.75 6.48,-2.89 7.70,-3.05 8.92,-3.21 10.40,-3.61 11.88,-4.01 13.10,-4.14 14.32,-4.27 16.06,-4.29 17.80,-4.32 18.27,-4.24 18.74,-4.17 19.16,-3.95 19.58,-3.73 19.91,-3.38 20.23,-3.04 20.43,-2.61 20.64,-2.18 20.69,-1.71 20.74,-1.23 20.64,-0.77 20.54,-0.31 20.30,0.09 20.05,0.50 19.69,0.81 19.33,1.12 18.89,1.29 18.45,1.47 17.97,1.50 17.50,1.53 17.04,1.40 16.58,1.27 16.19,1.01 15.80,0.74 15.51,0.37 15.22,-0.00 15.07,-0.45 14.91,-0.90 14.91,-1.38 14.91,-1.85 15.06,-2.30 15.21,-2.75 15.50,-3.13 15.78,-3.51 16.18,-3.78 16.57,-4.04 17.03,-4.17 17.48,-4.30 17.96,-4.28 18.43,-4.25 18.87,-4.08 19.32,-3.90 19.68,-3.60 20.04,-3.29 20.29,-2.88 20.53,-2.48 20.64,-2.01 20.74,-1.55 20.69,-1.08 20.64,-0.61 20.44,-0.17 20.24,0.25 19.92,0.59 19.59,0.94 19.17,1.16 18.75,1.39 18.29,1.46 17.82,1.54 17.82,1.54 17.82,1.54 16.14,1.54 14.47,1.53 13.16,1.49 11.85,1.45 10.47,1.66 9.08,1.86 7.96,1.81 6.83,1.75 5.71,1.78 4.59,1.81 2.41,2.17 0.23,2.53 -0.07,2.52 -0.38,2.51 -0.67,2.42 -0.97,2.34 -1.23,2.19 -1.50,2.04 -1.72,1.83 -1.95,1.62 -2.11,1.36 -2.28,1.11 -2.38,0.82 -2.48,0.53 -2.51,0.22 -2.53,-0.07 -2.49,-0.37 -2.44,-0.68 -2.33,-0.96 -2.21,-1.24 -2.03,-1.49 -1.85,-1.74 -1.61,-1.93 -1.37,-2.13 -1.10,-2.26 -0.82,-2.40 -0.52,-2.46 -0.22,-2.53 -0.22,-2.53 L -0.23,-2.53 Z"></path></g><g transform="translate(53.285844842650704 110.22973550594998) rotate(179.53794727856936 21.889319191424192 3.82194462072448)" stroke="none"><path fill="#e66000" d="M 0,-2.24 Q 0,-2.24 2.39,-2.11 4.79,-1.99 7.21,-1.90 9.62,-1.81 11.45,-1.81 13.28,-1.81 14.65,-1.88 16.03,-1.95 17.81,-1.95 19.60,-1.94 21.15,-1.98 22.71,-2.01 24.14,-2.15 25.56,-2.29 27.39,-2.16 29.21,-2.02 30.37,-1.52 31.53,-1.01 32.77,-0.65 34.00,-0.30 35.35,-0.09 36.71,0.11 37.90,0.90 39.10,1.70 40.06,2.57 41.01,3.43 43.18,4.16 45.34,4.90 45.71,5.25 46.08,5.60 46.31,6.06 46.55,6.51 46.63,7.01 46.70,7.51 46.62,8.02 46.53,8.52 46.29,8.97 46.05,9.41 45.67,9.76 45.30,10.11 44.84,10.32 44.37,10.53 43.87,10.58 43.36,10.63 42.86,10.52 42.37,10.40 41.93,10.14 41.50,9.87 41.17,9.48 40.85,9.09 40.66,8.62 40.48,8.14 40.45,7.63 40.43,7.12 40.57,6.63 40.71,6.14 41.00,5.72 41.29,5.31 41.70,5.00 42.10,4.70 42.59,4.54 43.07,4.38 43.58,4.38 44.09,4.39 44.57,4.55 45.05,4.72 45.46,5.03 45.86,5.34 46.14,5.77 46.42,6.19 46.56,6.68 46.69,7.17 46.66,7.68 46.62,8.19 46.43,8.66 46.24,9.13 45.91,9.52 45.57,9.90 45.14,10.16 44.70,10.42 44.20,10.53 43.70,10.63 43.19,10.57 42.69,10.51 42.23,10.30 41.77,10.08 41.77,10.08 41.77,10.08 40.67,9.58 39.57,9.08 38.27,8.09 36.96,7.11 36.15,6.17 35.33,5.22 33.97,4.94 32.61,4.66 30.96,4.20 29.32,3.74 27.44,3.02 25.56,2.29 24.14,2.15 22.71,2.01 21.15,1.98 19.60,1.94 17.81,1.95 16.03,1.95 14.65,1.88 13.28,1.81 11.45,1.81 9.62,1.81 7.21,1.90 4.79,1.99 2.39,2.11 0,2.24 -0.26,2.20 -0.53,2.17 -0.78,2.08 -1.04,1.98 -1.26,1.83 -1.48,1.67 -1.66,1.47 -1.84,1.27 -1.96,1.03 -2.09,0.79 -2.16,0.53 -2.22,0.27 -2.22,-0.00 -2.22,-0.27 -2.15,-0.53 -2.09,-0.79 -1.96,-1.03 -1.84,-1.27 -1.66,-1.47 -1.48,-1.67 -1.26,-1.83 -1.04,-1.98 -0.78,-2.08 -0.53,-2.17 -0.26,-2.20 0.00,-2.24 0.00,-2.24 L 0,-2.24 Z"></path></g><g transform="translate(71.30003940237975 106.76946466137997) rotate(179.53794727856936 2.084697065849923 0.6948990219498228)" stroke="none"><path d="M-0.4 -0.34 C-0.4 -0.34, -0.4 -0.34, -0.4 -0.34 M-0.4 -0.34 C-0.4 -0.34, -0.4 -0.34, -0.4 -0.34 M2.71 2.09 C2.96 2.14, 3.08 1.47, 4.09 0.6 M2.59 2.27 C2.78 1.95, 3.14 1.58, 3.96 0.67" stroke="#ced4da" stroke-width="0.5" fill="none"></path><path fill="#e66000" d="M 0.47,-2.39 Q 0.47,-2.39 1.48,-2.24 2.49,-2.08 2.38,-2.14 2.27,-2.20 2.58,-2.12 2.90,-2.04 3.18,-1.88 3.47,-1.73 3.71,-1.51 3.95,-1.29 4.13,-1.02 4.31,-0.75 4.42,-0.45 4.53,-0.14 4.56,0.17 4.60,0.49 4.56,0.82 4.51,1.14 4.39,1.44 4.27,1.74 4.08,2.01 3.90,2.27 3.65,2.48 3.40,2.69 3.11,2.84 2.83,2.99 2.51,3.06 2.19,3.13 1.87,3.13 1.54,3.12 1.01,2.93 0.47,2.73 0.15,2.45 -0.17,2.16 -0.39,1.78 -0.60,1.40 -0.69,0.98 -0.77,0.55 -0.72,0.12 -0.66,-0.31 -0.47,-0.70 -0.28,-1.09 0.01,-1.40 0.32,-1.71 0.71,-1.91 1.10,-2.10 1.53,-2.16 1.96,-2.23 2.39,-2.15 2.82,-2.07 3.20,-1.86 3.58,-1.64 3.87,-1.32 4.17,-1.00 4.34,-0.60 4.52,-0.20 4.55,0.22 4.59,0.66 4.49,1.08 4.39,1.50 4.16,1.87 3.92,2.24 3.59,2.52 3.25,2.79 2.84,2.94 2.43,3.10 2.00,3.11 1.56,3.13 1.14,3.00 0.73,2.88 0.37,2.62 0.02,2.37 -0.23,2.02 -0.49,1.67 -0.62,1.25 -0.75,0.84 -0.74,0.40 -0.73,-0.02 -0.58,-0.43 -0.44,-0.84 -0.17,-1.18 0.10,-1.53 0.46,-1.76 0.83,-2.00 1.25,-2.11 1.67,-2.22 2.10,-2.18 2.54,-2.15 2.40,-2.18 2.27,-2.20 2.58,-2.12 2.90,-2.04 3.18,-1.88 3.47,-1.73 3.71,-1.51 3.95,-1.29 4.13,-1.02 4.31,-0.75 4.42,-0.45 4.53,-0.14 4.56,0.17 4.60,0.49 4.56,0.82 4.51,1.14 4.39,1.44 4.27,1.74 4.08,2.01 3.90,2.27 3.65,2.48 3.40,2.69 3.11,2.84 2.83,2.99 2.51,3.06 2.19,3.13 1.87,3.13 1.54,3.12 1.52,3.00 1.50,2.88 0.51,2.64 -0.47,2.39 -0.75,2.30 -1.03,2.21 -1.28,2.05 -1.53,1.90 -1.74,1.68 -1.94,1.47 -2.09,1.22 -2.24,0.96 -2.32,0.68 -2.41,0.40 -2.42,0.10 -2.43,-0.18 -2.38,-0.47 -2.32,-0.76 -2.19,-1.03 -2.07,-1.29 -1.88,-1.52 -1.70,-1.75 -1.46,-1.93 -1.23,-2.11 -0.96,-2.23 -0.68,-2.34 -0.39,-2.39 -0.10,-2.44 0.18,-2.42 0.47,-2.39 0.47,-2.39 L 0.47,-2.39 Z"></path></g><g transform="translate(25.287778482899284 85.39654388157214) rotate(0 -7.643889241449642 -5.5591921755999465)" stroke="none"><path fill="#e66000" d="M -1.16,2.32 Q -1.16,2.32 -1.97,1.96 -2.77,1.60 -3.97,1.57 -5.16,1.54 -6.79,1.86 -8.42,2.19 -9.82,2.33 -11.21,2.46 -12.73,2.09 -14.24,1.73 -15.19,1.00 -16.13,0.28 -17.15,-0.71 -18.17,-1.70 -18.41,-3.15 -18.64,-4.61 -18.59,-5.92 -18.54,-7.24 -18.08,-8.28 -17.63,-9.33 -16.89,-10.47 -16.15,-11.62 -14.54,-12.36 -12.94,-13.10 -11.47,-13.17 -10.00,-13.24 -8.92,-13.59 -7.84,-13.93 -6.90,-14.08 -5.96,-14.23 -5.42,-14.43 -4.87,-14.64 -4.29,-14.66 -3.71,-14.68 -3.15,-14.51 -2.60,-14.35 -2.12,-14.01 -1.65,-13.68 -1.30,-13.21 -0.96,-12.74 -0.78,-12.19 -0.61,-11.63 -0.62,-11.05 -0.63,-10.47 -0.82,-9.92 -1.02,-9.37 -1.38,-8.92 -1.74,-8.46 -2.23,-8.14 -2.71,-7.82 -3.28,-7.68 -3.84,-7.53 -4.42,-7.58 -5.00,-7.62 -5.54,-7.84 -6.07,-8.07 -6.51,-8.45 -6.95,-8.84 -7.24,-9.34 -7.53,-9.84 -7.64,-10.41 -7.76,-10.98 -7.68,-11.56 -7.61,-12.14 -7.36,-12.66 -7.10,-13.18 -6.70,-13.60 -6.29,-14.01 -5.77,-14.28 -5.25,-14.54 -4.67,-14.62 -4.10,-14.71 -3.53,-14.60 -2.96,-14.50 -2.45,-14.22 -1.94,-13.93 -1.55,-13.51 -1.15,-13.08 -0.92,-12.54 -0.68,-12.01 -0.63,-11.43 -0.58,-10.85 -0.71,-10.29 -0.85,-9.72 -1.16,-9.23 -1.47,-8.74 -1.92,-8.37 -2.37,-8.00 -2.37,-8.00 -2.37,-8.00 -4.92,-7.44 -7.48,-6.89 -9.44,-6.89 -11.40,-6.89 -12.19,-5.95 -12.98,-5.01 -11.82,-4.42 -10.66,-3.84 -9.49,-3.88 -8.32,-3.92 -6.63,-4.10 -4.94,-4.28 -3.70,-4.05 -2.45,-3.82 -1.43,-3.51 -0.41,-3.20 0.37,-2.76 1.16,-2.32 1.42,-2.15 1.68,-1.97 1.89,-1.74 2.11,-1.51 2.26,-1.24 2.41,-0.96 2.49,-0.66 2.57,-0.36 2.58,-0.05 2.58,0.26 2.51,0.56 2.44,0.87 2.30,1.15 2.16,1.43 1.96,1.67 1.76,1.91 1.50,2.09 1.25,2.27 0.96,2.39 0.67,2.51 0.36,2.55 0.05,2.59 -0.26,2.56 -0.57,2.53 -0.86,2.43 -1.16,2.32 -1.16,2.32 L -1.16,2.32 Z"></path></g><g transform="translate(23.20308141704936 76.36285659622263) rotate(0 5.211742664624808 0)" stroke="none"><path fill="#e66000" d="M 0,-2.37 Q 0,-2.37 2.39,-2.23 4.79,-2.09 6.01,-2.15 7.23,-2.21 9.17,-2.25 11.11,-2.29 11.48,-2.23 11.85,-2.17 12.17,-1.99 12.50,-1.82 12.76,-1.55 13.01,-1.28 13.17,-0.95 13.32,-0.61 13.36,-0.24 13.40,0.12 13.32,0.48 13.24,0.84 13.05,1.16 12.86,1.48 12.58,1.72 12.30,1.96 11.95,2.10 11.61,2.23 11.24,2.25 10.87,2.27 10.51,2.18 10.15,2.08 9.84,1.87 9.54,1.66 9.31,1.36 9.09,1.07 8.97,0.72 8.85,0.37 8.85,-0.00 8.85,-0.37 8.97,-0.72 9.09,-1.07 9.31,-1.36 9.54,-1.66 9.84,-1.87 10.15,-2.08 10.51,-2.18 10.87,-2.27 11.24,-2.25 11.61,-2.23 11.95,-2.10 12.30,-1.96 12.58,-1.72 12.86,-1.48 13.05,-1.16 13.24,-0.84 13.32,-0.48 13.40,-0.12 13.36,0.24 13.32,0.61 13.17,0.95 13.01,1.28 12.76,1.55 12.50,1.82 12.17,1.99 11.84,2.17 11.48,2.23 11.11,2.29 11.11,2.29 11.11,2.29 9.17,2.25 7.23,2.21 6.01,2.15 4.79,2.09 2.39,2.23 0,2.37 -0.28,2.33 -0.56,2.30 -0.83,2.20 -1.10,2.09 -1.33,1.93 -1.57,1.77 -1.76,1.56 -1.95,1.34 -2.08,1.09 -2.21,0.84 -2.28,0.56 -2.35,0.28 -2.35,-0.00 -2.35,-0.28 -2.28,-0.56 -2.21,-0.84 -2.08,-1.09 -1.95,-1.34 -1.76,-1.56 -1.57,-1.77 -1.33,-1.93 -1.10,-2.09 -0.83,-2.20 -0.56,-2.30 -0.28,-2.33 0.00,-2.37 0.00,-2.37 L 0,-2.37 Z"></path></g><g transform="translate(21.11838435119944 74.97305855232298) rotate(0 13.203081417049475 -0.34744951097536614)" stroke="none"><path fill="#e66000" d="M -0.97,-2.44 Q -0.97,-2.44 0.02,-2.86 1.02,-3.29 2.77,-3.52 4.53,-3.76 5.59,-3.87 6.66,-3.97 8.02,-4.09 9.38,-4.21 10.57,-4.28 11.76,-4.35 12.91,-4.41 14.06,-4.48 15.49,-4.54 16.92,-4.61 17.99,-4.33 19.06,-4.05 20.93,-3.76 22.80,-3.47 24.99,-2.94 27.17,-2.40 27.64,-2.20 28.12,-2.00 28.50,-1.65 28.89,-1.31 29.15,-0.86 29.40,-0.41 29.50,0.09 29.60,0.60 29.53,1.11 29.46,1.62 29.23,2.09 29.00,2.55 28.64,2.92 28.27,3.28 27.81,3.51 27.34,3.75 26.83,3.82 26.32,3.89 25.81,3.79 25.30,3.69 24.85,3.44 24.40,3.18 24.06,2.80 23.71,2.42 23.50,1.94 23.30,1.47 23.26,0.95 23.21,0.43 23.34,-0.06 23.46,-0.56 23.74,-1.00 24.02,-1.43 24.42,-1.76 24.82,-2.08 25.31,-2.26 25.79,-2.44 26.31,-2.45 26.83,-2.47 27.32,-2.32 27.82,-2.17 28.24,-1.86 28.66,-1.56 28.96,-1.14 29.26,-0.72 29.42,-0.23 29.57,0.25 29.56,0.77 29.54,1.29 29.36,1.77 29.19,2.26 28.86,2.66 28.54,3.07 28.10,3.35 27.67,3.63 27.17,3.75 26.66,3.88 26.15,3.83 25.63,3.79 25.63,3.79 25.63,3.79 23.72,3.31 21.80,2.83 20.54,2.69 19.27,2.55 17.71,2.18 16.16,1.81 14.75,1.73 13.34,1.66 12.08,1.59 10.82,1.52 9.53,1.47 8.24,1.43 6.70,1.45 5.15,1.48 4.06,1.59 2.97,1.69 1.97,2.06 0.97,2.44 0.67,2.52 0.36,2.60 0.04,2.61 -0.27,2.61 -0.57,2.54 -0.88,2.47 -1.17,2.33 -1.45,2.19 -1.69,1.98 -1.93,1.77 -2.12,1.52 -2.30,1.26 -2.42,0.96 -2.54,0.67 -2.58,0.36 -2.63,0.04 -2.59,-0.26 -2.56,-0.58 -2.45,-0.88 -2.35,-1.18 -2.17,-1.44 -1.99,-1.70 -1.76,-1.92 -1.53,-2.13 -1.25,-2.29 -0.97,-2.44 -0.97,-2.44 L -0.97,-2.44 Z"></path></g><g transform="translate(28.76227359264908 77.75265464012227) rotate(0 12.508182395099539 0)" stroke="none"><path fill="#e66000" d="M 0,-2.20 Q 0,-2.20 0.99,-2.26 1.99,-2.32 3.42,-2.34 4.84,-2.35 6.64,-2.30 8.45,-2.24 11.21,-2.12 13.98,-2.00 16.55,-1.90 19.12,-1.81 22.07,-1.89 25.01,-1.98 25.33,-1.92 25.64,-1.87 25.93,-1.72 26.21,-1.57 26.43,-1.34 26.65,-1.11 26.79,-0.82 26.92,-0.53 26.96,-0.21 26.99,0.10 26.92,0.42 26.85,0.73 26.69,1.00 26.52,1.28 26.28,1.49 26.03,1.69 25.74,1.81 25.44,1.93 25.12,1.95 24.80,1.96 24.49,1.88 24.18,1.79 23.91,1.61 23.65,1.43 23.45,1.18 23.26,0.92 23.16,0.62 23.06,0.32 23.06,-0.00 23.06,-0.32 23.16,-0.62 23.26,-0.92 23.45,-1.18 23.65,-1.43 23.91,-1.61 24.18,-1.79 24.49,-1.88 24.80,-1.97 25.12,-1.95 25.44,-1.93 25.74,-1.81 26.03,-1.69 26.28,-1.49 26.52,-1.28 26.69,-1.00 26.85,-0.73 26.92,-0.41 26.99,-0.10 26.96,0.21 26.92,0.53 26.79,0.82 26.65,1.11 26.43,1.34 26.21,1.57 25.93,1.72 25.64,1.87 25.33,1.92 25.01,1.98 25.01,1.98 25.01,1.98 22.07,1.89 19.12,1.81 16.55,1.90 13.98,2.00 11.21,2.12 8.45,2.24 6.64,2.30 4.84,2.35 3.42,2.34 1.99,2.32 0.99,2.26 0,2.20 -0.26,2.16 -0.52,2.13 -0.77,2.04 -1.02,1.94 -1.24,1.79 -1.45,1.64 -1.63,1.44 -1.81,1.25 -1.93,1.01 -2.05,0.78 -2.12,0.52 -2.18,0.26 -2.18,-0.00 -2.18,-0.26 -2.12,-0.52 -2.05,-0.78 -1.93,-1.01 -1.81,-1.25 -1.63,-1.44 -1.45,-1.64 -1.24,-1.79 -1.02,-1.94 -0.77,-2.04 -0.52,-2.13 -0.26,-2.16 0.00,-2.20 0.00,-2.20 L 0,-2.20 Z"></path></g><g transform="translate(23.20308141704936 74.97305855232298) rotate(0 21.194420169474142 0.3474495109749114)" stroke="none"><path fill="#e66000" d="M 0.22,-2.21 Q 0.22,-2.21 2.21,-1.92 4.19,-1.63 7.96,-1.46 11.72,-1.28 14.95,-1.17 18.17,-1.06 20.34,-0.99 22.51,-0.92 23.63,-1.02 24.75,-1.12 26.20,-1.28 27.64,-1.44 28.96,-1.57 30.27,-1.69 31.54,-1.82 32.80,-1.94 34.14,-2.04 35.49,-2.15 36.79,-2.22 38.09,-2.30 40.24,-2.34 42.38,-2.38 42.88,-2.30 43.37,-2.22 43.81,-1.99 44.25,-1.75 44.59,-1.39 44.94,-1.03 45.15,-0.58 45.35,-0.12 45.41,0.36 45.46,0.86 45.36,1.34 45.25,1.83 44.99,2.26 44.73,2.69 44.35,3.01 43.97,3.33 43.51,3.52 43.05,3.70 42.55,3.73 42.05,3.76 41.57,3.62 41.09,3.49 40.68,3.21 40.26,2.93 39.96,2.53 39.66,2.13 39.50,1.66 39.34,1.19 39.34,0.69 39.34,0.19 39.50,-0.27 39.66,-0.74 39.96,-1.14 40.26,-1.54 40.68,-1.82 41.09,-2.10 41.57,-2.23 42.05,-2.37 42.55,-2.34 43.05,-2.31 43.51,-2.13 43.97,-1.94 44.35,-1.62 44.73,-1.30 44.99,-0.87 45.25,-0.44 45.36,0.04 45.46,0.52 45.41,1.02 45.35,1.52 45.15,1.97 44.94,2.42 44.59,2.78 44.25,3.15 43.81,3.38 43.37,3.61 42.88,3.69 42.38,3.77 42.38,3.77 42.38,3.77 40.24,3.73 38.09,3.69 36.79,3.61 35.49,3.53 34.14,3.43 32.80,3.33 31.53,3.21 30.27,3.08 28.95,2.95 27.64,2.83 26.18,2.66 24.73,2.49 23.61,2.38 22.48,2.27 20.31,2.31 18.13,2.34 14.89,2.38 11.64,2.42 7.71,2.43 3.79,2.43 1.78,2.32 -0.22,2.21 -0.48,2.15 -0.74,2.09 -0.98,1.97 -1.22,1.85 -1.43,1.68 -1.63,1.51 -1.79,1.29 -1.94,1.07 -2.04,0.82 -2.14,0.57 -2.18,0.31 -2.22,0.04 -2.19,-0.21 -2.17,-0.48 -2.08,-0.73 -1.99,-0.99 -1.84,-1.21 -1.69,-1.44 -1.49,-1.62 -1.30,-1.80 -1.06,-1.93 -0.83,-2.06 -0.57,-2.13 -0.31,-2.20 -0.04,-2.20 0.22,-2.21 0.22,-2.21 L 0.22,-2.21 Z"></path></g><g transform="translate(27.372475548749208 73.58326050842243) rotate(0 75.74399339254705 -1.0423485329247342)" stroke="none"><path fill="#e66000" d="M 0.95,-2.38 Q 0.95,-2.38 1.96,-2.00 2.97,-1.63 4.83,-1.24 6.69,-0.84 8.85,-0.58 11.00,-0.32 12.33,-0.27 13.65,-0.21 15.28,0.07 16.92,0.35 18.39,0.42 19.87,0.49 21.35,0.48 22.83,0.47 24.21,0.43 25.60,0.39 26.92,0.63 28.23,0.86 29.51,0.91 30.80,0.96 32.04,0.94 33.28,0.93 34.44,0.89 35.60,0.85 37.24,1.08 38.88,1.32 40.86,1.69 42.83,2.07 44.06,2.17 45.30,2.27 46.58,2.28 47.87,2.28 49.14,2.48 50.41,2.68 51.54,2.76 52.67,2.83 53.86,2.81 55.05,2.80 57.47,2.53 59.89,2.26 61.44,2.21 62.98,2.16 64.54,2.15 66.10,2.15 67.49,1.88 68.88,1.61 70.28,1.50 71.68,1.38 72.75,1.35 73.83,1.33 75.01,1.33 76.19,1.32 77.75,1.34 79.30,1.36 80.71,1.34 82.11,1.33 83.52,1.34 84.92,1.35 87.00,1.42 89.07,1.49 90.64,1.49 92.21,1.50 93.47,1.54 94.73,1.59 96.06,1.64 97.39,1.69 98.97,1.68 100.55,1.66 101.73,1.35 102.91,1.04 104.21,0.95 105.51,0.86 107.98,0.93 110.45,1.00 111.87,0.72 113.30,0.44 114.54,-0.19 115.79,-0.83 117.26,-1.62 118.73,-2.40 120.39,-3.11 122.05,-3.81 123.08,-4.51 124.11,-5.21 125.64,-5.66 127.17,-6.11 128.50,-6.20 129.83,-6.29 131.25,-6.91 132.68,-7.54 133.71,-8.07 134.75,-8.61 135.92,-8.94 137.08,-9.27 137.85,-10.09 138.62,-10.91 140.07,-11.43 141.52,-11.96 143.37,-11.98 145.21,-11.99 146.67,-11.99 148.12,-12.00 149.31,-11.79 150.51,-11.58 151.77,-10.77 153.03,-9.95 153.88,-8.31 154.73,-6.67 154.91,-5.23 155.10,-3.78 154.73,-2.07 154.37,-0.36 154.02,0.68 153.68,1.74 152.87,2.80 152.06,3.87 149.13,5.51 146.20,7.15 145.60,7.09 145.01,7.04 144.46,6.80 143.92,6.56 143.47,6.16 143.03,5.76 142.74,5.24 142.45,4.72 142.35,4.13 142.24,3.54 142.32,2.95 142.41,2.36 142.68,1.83 142.94,1.30 143.37,0.88 143.79,0.46 144.33,0.20 144.87,-0.05 145.46,-0.13 146.05,-0.21 146.63,-0.09 147.22,0.02 147.74,0.31 148.25,0.61 148.65,1.06 149.04,1.51 149.28,2.06 149.51,2.61 149.55,3.20 149.60,3.80 149.45,4.37 149.30,4.95 148.98,5.45 148.65,5.95 148.18,6.32 147.72,6.69 147.15,6.89 146.59,7.10 146.00,7.11 145.40,7.12 144.83,6.94 144.26,6.76 143.78,6.41 143.30,6.06 142.95,5.57 142.61,5.08 142.44,4.51 142.27,3.94 142.29,3.34 142.31,2.75 142.52,2.19 142.73,1.63 143.10,1.17 143.48,0.71 143.99,0.39 144.49,0.07 145.07,-0.06 145.65,-0.20 145.65,-0.20 145.65,-0.20 145.89,0.06 146.14,0.33 146.73,-0.55 147.31,-1.43 148.09,-3.05 148.86,-4.67 147.65,-4.67 146.43,-4.68 145.03,-5.22 143.62,-5.76 142.54,-5.03 141.46,-4.30 140.43,-3.65 139.39,-3.00 138.13,-2.22 136.87,-1.43 135.81,-1.09 134.76,-0.75 133.67,-0.40 132.58,-0.05 131.49,0.35 130.40,0.75 128.95,0.58 127.49,0.41 126.59,1.16 125.69,1.90 124.30,2.57 122.92,3.23 121.21,3.86 119.50,4.49 118.26,5.22 117.01,5.95 115.05,6.40 113.09,6.86 111.79,7.10 110.48,7.33 109.06,7.40 107.64,7.47 105.66,7.43 103.68,7.38 102.11,7.72 100.55,8.05 98.97,8.04 97.39,8.03 96.06,8.08 94.73,8.13 93.47,8.17 92.21,8.22 90.64,8.23 89.07,8.23 87.75,8.29 86.43,8.36 84.84,8.38 83.24,8.39 81.85,8.38 80.45,8.37 78.99,8.38 77.53,8.39 76.23,8.39 74.93,8.40 73.70,8.38 72.47,8.37 71.19,8.36 69.91,8.35 68.82,8.65 67.73,8.95 66.07,8.97 64.40,8.99 63.23,9.00 62.06,9.01 60.76,8.98 59.45,8.94 57.60,9.33 55.75,9.72 54.61,9.68 53.47,9.65 52.29,9.61 51.12,9.57 49.44,9.19 47.77,8.81 46.29,8.76 44.80,8.71 43.30,8.53 41.81,8.34 39.66,8.08 37.52,7.81 36.19,7.63 34.87,7.46 33.53,7.41 32.19,7.36 30.35,7.24 28.52,7.12 27.04,6.83 25.56,6.54 24.18,6.50 22.79,6.45 21.18,6.39 19.57,6.34 17.84,6.14 16.11,5.94 13.87,5.71 11.63,5.48 9.88,5.10 8.14,4.72 6.18,4.38 4.22,4.03 2.62,3.63 1.02,3.23 0.03,2.80 -0.95,2.38 -1.22,2.23 -1.49,2.08 -1.72,1.87 -1.94,1.66 -2.12,1.40 -2.29,1.15 -2.39,0.85 -2.50,0.56 -2.53,0.26 -2.56,-0.04 -2.52,-0.35 -2.47,-0.65 -2.36,-0.94 -2.24,-1.23 -2.06,-1.48 -1.88,-1.73 -1.65,-1.93 -1.41,-2.13 -1.14,-2.27 -0.86,-2.41 -0.56,-2.48 -0.26,-2.55 0.04,-2.54 0.35,-2.53 0.65,-2.45 0.95,-2.38 0.95,-2.38 L 0.95,-2.38 Z"></path></g><g transform="translate(150.36960243389444 74.27815953037225) rotate(0 -9.033687285349629 1.042348532925189)" stroke="none"><path fill="#e66000" d="M 0,2.43 Q 0,2.43 -0.79,2.48 -1.59,2.53 -3.45,2.99 -5.31,3.45 -8.56,3.81 -11.80,4.16 -13.15,4.30 -14.51,4.44 -16.21,4.58 -17.92,4.72 -18.34,4.68 -18.77,4.63 -19.16,4.45 -19.55,4.27 -19.86,3.98 -20.17,3.68 -20.37,3.30 -20.57,2.93 -20.64,2.50 -20.71,2.08 -20.64,1.66 -20.57,1.24 -20.37,0.86 -20.17,0.48 -19.86,0.18 -19.55,-0.10 -19.16,-0.28 -18.77,-0.46 -18.35,-0.51 -17.92,-0.55 -17.50,-0.46 -17.08,-0.37 -16.72,-0.15 -16.35,0.06 -16.07,0.39 -15.80,0.72 -15.64,1.11 -15.48,1.51 -15.46,1.94 -15.43,2.37 -15.55,2.78 -15.66,3.19 -15.90,3.54 -16.14,3.90 -16.48,4.16 -16.82,4.42 -17.23,4.55 -17.63,4.69 -18.06,4.69 -18.49,4.69 -18.90,4.55 -19.30,4.42 -19.64,4.16 -19.98,3.90 -20.22,3.54 -20.46,3.19 -20.58,2.78 -20.69,2.37 -20.67,1.94 -20.65,1.51 -20.49,1.11 -20.33,0.72 -20.05,0.39 -19.78,0.06 -19.41,-0.15 -19.04,-0.37 -18.62,-0.46 -18.21,-0.55 -18.21,-0.55 -18.21,-0.55 -16.60,-0.59 -14.98,-0.63 -13.73,-0.74 -12.48,-0.84 -10.56,-1.29 -8.64,-1.74 -6.86,-1.93 -5.08,-2.12 -3.34,-2.33 -1.59,-2.53 -0.79,-2.48 0,-2.43 0.29,-2.39 0.58,-2.35 0.85,-2.25 1.12,-2.15 1.37,-1.98 1.61,-1.81 1.80,-1.59 1.99,-1.38 2.13,-1.12 2.27,-0.86 2.34,-0.57 2.41,-0.29 2.41,0.00 2.41,0.29 2.34,0.57 2.27,0.86 2.13,1.12 1.99,1.38 1.80,1.59 1.61,1.81 1.37,1.98 1.12,2.15 0.85,2.25 0.58,2.35 0.29,2.39 -0.00,2.43 -0.00,2.43 L 0,2.43 Z"></path></g><g transform="translate(44.05005207554859 90.95573605717163) rotate(0 20.15207163654918 -3.4744951097495687)" stroke="none"><path fill="#e66000" d="M -1.34,-2.23 Q -1.34,-2.23 -0.35,-2.85 0.63,-3.47 1.79,-4.01 2.95,-4.56 4.11,-5.22 5.28,-5.88 6.69,-6.47 8.10,-7.06 9.42,-7.08 10.75,-7.11 11.85,-7.12 12.95,-7.13 14.39,-7.17 15.83,-7.22 17.26,-7.24 18.69,-7.27 20.05,-7.30 21.42,-7.33 22.60,-7.38 23.78,-7.42 25.43,-7.44 27.08,-7.46 28.61,-7.46 30.14,-7.47 31.73,-8.09 33.33,-8.72 34.94,-9.09 36.54,-9.45 37.62,-9.70 38.69,-9.94 39.21,-10.12 39.73,-10.30 40.28,-10.30 40.83,-10.30 41.35,-10.13 41.88,-9.96 42.32,-9.63 42.76,-9.30 43.07,-8.84 43.38,-8.39 43.53,-7.86 43.68,-7.33 43.65,-6.78 43.62,-6.23 43.42,-5.72 43.22,-5.21 42.87,-4.79 42.51,-4.36 42.04,-4.08 41.57,-3.79 41.04,-3.67 40.50,-3.55 39.95,-3.61 39.41,-3.66 38.91,-3.89 38.41,-4.12 38.00,-4.50 37.60,-4.87 37.34,-5.36 37.08,-5.84 36.99,-6.38 36.90,-6.93 36.98,-7.47 37.07,-8.01 37.33,-8.50 37.58,-8.99 37.98,-9.37 38.38,-9.75 38.87,-9.98 39.37,-10.22 39.92,-10.28 40.47,-10.34 41.00,-10.22 41.54,-10.11 42.01,-9.83 42.49,-9.55 42.85,-9.13 43.20,-8.71 43.41,-8.20 43.62,-7.69 43.65,-7.14 43.68,-6.59 43.54,-6.06 43.39,-5.53 43.09,-5.08 42.78,-4.62 42.34,-4.28 41.91,-3.95 41.91,-3.95 41.91,-3.95 39.63,-3.34 37.35,-2.74 36.26,-2.74 35.17,-2.74 33.83,-2.06 32.49,-1.37 31.35,-1.11 30.20,-0.86 28.64,-0.86 27.08,-0.87 25.43,-0.89 23.78,-0.90 22.60,-0.95 21.42,-1.00 20.06,-1.03 18.69,-1.06 17.27,-1.08 15.84,-1.10 14.42,-1.14 13.00,-1.17 10.95,-1.15 8.91,-1.13 7.83,-0.83 6.75,-0.53 5.05,0.26 3.35,1.07 2.35,1.65 1.34,2.23 1.05,2.36 0.76,2.49 0.45,2.54 0.14,2.60 -0.16,2.58 -0.47,2.56 -0.77,2.47 -1.07,2.37 -1.34,2.21 -1.61,2.04 -1.83,1.82 -2.05,1.60 -2.22,1.33 -2.38,1.06 -2.47,0.76 -2.56,0.46 -2.58,0.14 -2.60,-0.16 -2.54,-0.47 -2.48,-0.78 -2.35,-1.07 -2.22,-1.35 -2.03,-1.60 -1.83,-1.85 -1.59,-2.04 -1.34,-2.23 -1.34,-2.23 L -1.34,-2.23 Z"></path></g><g transform="translate(77.40520512914736 94.43023116692166) rotate(0 16.330127015824246 1.7372475548750117)" stroke="none"><path fill="#e66000" d="M 0.51,-2.32 Q 0.51,-2.32 2.29,-1.85 4.08,-1.39 5.35,-1.04 6.62,-0.68 8.20,-0.32 9.77,0.03 11.73,0.29 13.69,0.54 15.13,0.77 16.56,1.00 18.00,1.01 19.44,1.02 20.51,0.95 21.57,0.88 22.68,0.78 23.79,0.69 25.09,0.64 26.39,0.59 29.52,0.52 32.66,0.44 33.14,0.52 33.62,0.60 34.06,0.83 34.49,1.06 34.83,1.41 35.16,1.77 35.37,2.21 35.58,2.66 35.63,3.15 35.68,3.63 35.58,4.11 35.47,4.59 35.22,5.01 34.97,5.43 34.59,5.75 34.22,6.07 33.76,6.25 33.31,6.43 32.82,6.46 32.33,6.48 31.85,6.35 31.38,6.22 30.98,5.94 30.57,5.67 30.27,5.28 29.98,4.89 29.82,4.42 29.66,3.96 29.66,3.47 29.66,2.98 29.82,2.51 29.98,2.05 30.27,1.66 30.57,1.27 30.98,0.99 31.38,0.72 31.86,0.59 32.33,0.46 32.82,0.48 33.31,0.51 33.76,0.69 34.22,0.87 34.59,1.19 34.97,1.51 35.22,1.93 35.47,2.35 35.58,2.83 35.68,3.31 35.63,3.79 35.58,4.28 35.37,4.73 35.16,5.17 34.83,5.53 34.49,5.88 34.06,6.11 33.62,6.34 33.14,6.42 32.65,6.50 32.65,6.50 32.66,6.50 29.52,6.42 26.39,6.35 25.09,6.30 23.78,6.25 22.63,6.14 21.48,6.04 20.27,5.91 19.07,5.77 17.39,5.47 15.72,5.16 14.56,4.86 13.40,4.56 11.12,4.51 8.84,4.46 7.03,4.11 5.21,3.76 4.16,3.37 3.10,2.99 1.29,2.65 -0.51,2.32 -0.78,2.22 -1.05,2.12 -1.29,1.97 -1.53,1.81 -1.73,1.60 -1.92,1.39 -2.06,1.14 -2.20,0.89 -2.27,0.61 -2.35,0.34 -2.35,0.05 -2.36,-0.23 -2.30,-0.51 -2.24,-0.79 -2.11,-1.04 -1.98,-1.30 -1.80,-1.52 -1.61,-1.74 -1.38,-1.91 -1.15,-2.07 -0.88,-2.18 -0.62,-2.29 -0.33,-2.33 -0.05,-2.37 0.23,-2.34 0.51,-2.32 0.51,-2.32 L 0.51,-2.32 Z"></path></g><g transform="translate(114.2348532924957 109.7180096498214) rotate(0 15.635227993874423 -4.169394131699846)" stroke="none"><path fill="#e66000" d="M 0,-2.62 Q 0,-2.62 0.79,-2.66 1.59,-2.70 3.15,-2.76 4.71,-2.81 5.89,-3.14 7.07,-3.46 9.06,-3.59 11.06,-3.72 12.27,-3.71 13.49,-3.69 14.80,-3.67 16.12,-3.64 17.48,-3.61 18.83,-3.58 20.14,-3.63 21.45,-3.68 22.76,-3.71 24.08,-3.74 25.12,-4.98 26.15,-6.23 26.83,-7.90 27.50,-9.57 27.78,-9.92 28.06,-10.28 28.32,-10.58 28.57,-10.89 28.88,-11.12 29.20,-11.36 29.57,-11.51 29.93,-11.67 30.32,-11.73 30.71,-11.79 31.10,-11.76 31.50,-11.72 31.87,-11.60 32.25,-11.47 32.58,-11.26 32.91,-11.05 33.19,-10.76 33.46,-10.47 33.66,-10.13 33.85,-9.79 33.96,-9.41 34.07,-9.03 34.08,-8.63 34.10,-8.24 34.02,-7.85 33.94,-7.46 33.77,-7.11 33.59,-6.75 32.09,-5.24 30.59,-3.73 30.14,-3.46 29.68,-3.19 29.16,-3.08 28.64,-2.97 28.11,-3.03 27.58,-3.09 27.10,-3.32 26.62,-3.54 26.24,-3.91 25.85,-4.28 25.61,-4.75 25.36,-5.22 25.28,-5.75 25.20,-6.27 25.29,-6.80 25.38,-7.32 25.63,-7.79 25.88,-8.26 26.27,-8.62 26.66,-8.98 27.15,-9.20 27.63,-9.42 28.16,-9.48 28.69,-9.53 29.21,-9.41 29.73,-9.29 30.18,-9.02 30.63,-8.74 30.97,-8.33 31.32,-7.92 31.51,-7.43 31.70,-6.93 31.73,-6.40 31.75,-5.87 31.60,-5.36 31.46,-4.85 31.16,-4.41 30.85,-3.97 30.43,-3.65 30.00,-3.33 29.50,-3.17 28.99,-3.00 28.46,-3.01 27.93,-3.01 27.43,-3.18 26.92,-3.36 26.50,-3.68 26.08,-4.01 25.79,-4.45 25.49,-4.89 25.35,-5.41 25.22,-5.92 25.25,-6.45 25.28,-6.98 25.48,-7.47 25.68,-7.97 26.03,-8.37 26.38,-8.77 26.38,-8.77 26.38,-8.77 27.22,-9.52 28.06,-10.28 28.32,-10.58 28.57,-10.89 28.88,-11.12 29.20,-11.36 29.57,-11.51 29.93,-11.67 30.32,-11.73 30.71,-11.79 31.10,-11.76 31.50,-11.72 31.87,-11.60 32.25,-11.47 32.58,-11.26 32.91,-11.05 33.19,-10.76 33.46,-10.47 33.66,-10.13 33.85,-9.79 33.96,-9.41 34.07,-9.03 34.08,-8.63 34.10,-8.24 34.02,-7.85 33.94,-7.46 33.77,-7.11 33.59,-6.75 33.14,-6.04 32.68,-5.33 32.07,-4.32 31.47,-3.31 30.27,-1.95 29.06,-0.60 27.73,0.55 26.40,1.71 25.36,2.03 24.32,2.35 22.88,2.32 21.45,2.29 20.14,2.24 18.84,2.19 17.48,2.22 16.12,2.25 14.81,2.28 13.50,2.31 11.39,2.33 9.28,2.35 8.17,2.37 7.07,2.39 5.91,2.60 4.75,2.81 3.17,2.76 1.59,2.70 0.79,2.66 0,2.62 -0.31,2.59 -0.62,2.55 -0.92,2.44 -1.22,2.32 -1.48,2.14 -1.74,1.96 -1.95,1.73 -2.16,1.49 -2.31,1.21 -2.45,0.93 -2.53,0.62 -2.60,0.31 -2.60,-0.00 -2.60,-0.31 -2.53,-0.62 -2.45,-0.93 -2.31,-1.21 -2.16,-1.49 -1.95,-1.73 -1.74,-1.96 -1.48,-2.14 -1.22,-2.32 -0.92,-2.44 -0.62,-2.55 -0.31,-2.59 0.00,-2.62 0.00,-2.62 L 0,-2.62 Z"></path></g><g transform="translate(93.3878826339967 87.48124094742252) rotate(0 30.22810745482377 1.3897980438996456)" stroke="none"><path fill="#e66000" d="M -0.52,-2.60 Q -0.52,-2.60 0.47,-2.83 1.46,-3.05 2.58,-3.40 3.71,-3.75 4.91,-3.96 6.10,-4.18 7.70,-4.29 9.29,-4.39 10.61,-4.47 11.94,-4.54 13.51,-4.98 15.08,-5.41 16.66,-5.68 18.24,-5.96 19.41,-5.97 20.58,-5.97 22.06,-5.92 23.54,-5.86 25.19,-5.88 26.85,-5.90 28.73,-5.87 30.60,-5.83 32.69,-5.27 34.78,-4.71 36.35,-4.28 37.91,-3.85 39.21,-3.69 40.51,-3.54 41.72,-3.26 42.94,-2.99 44.18,-2.95 45.42,-2.91 46.79,-2.56 48.17,-2.21 49.36,-2.01 50.55,-1.81 52.17,-1.52 53.79,-1.23 55.12,-0.82 56.45,-0.40 58.05,0.30 59.64,1.01 61.15,2.01 62.66,3.01 63.01,3.43 63.36,3.85 63.56,4.36 63.75,4.87 63.78,5.41 63.80,5.96 63.65,6.48 63.50,7.01 63.19,7.45 62.87,7.90 62.44,8.23 62.00,8.55 61.48,8.72 60.96,8.89 60.41,8.88 59.87,8.88 59.35,8.70 58.84,8.52 58.41,8.18 57.97,7.85 57.67,7.39 57.37,6.94 57.23,6.41 57.09,5.88 57.13,5.34 57.16,4.79 57.37,4.29 57.58,3.78 57.94,3.37 58.30,2.96 58.77,2.68 59.24,2.41 59.77,2.29 60.31,2.18 60.85,2.25 61.39,2.31 61.88,2.55 62.38,2.78 62.77,3.16 63.16,3.54 63.41,4.03 63.66,4.51 63.74,5.05 63.83,5.59 63.73,6.13 63.64,6.67 63.37,7.15 63.11,7.63 62.71,8.00 62.31,8.37 61.81,8.59 61.32,8.82 60.77,8.87 60.23,8.92 59.70,8.80 59.17,8.67 58.70,8.39 58.24,8.10 58.24,8.10 58.24,8.10 56.84,7.26 55.44,6.42 54.37,5.91 53.30,5.39 51.89,4.92 50.48,4.45 49.24,4.21 48.00,3.96 46.89,3.42 45.77,2.87 44.41,2.71 43.05,2.55 41.49,2.12 39.94,1.68 38.31,1.52 36.68,1.36 35.12,1.05 33.57,0.75 32.07,0.51 30.57,0.28 28.72,0.31 26.86,0.35 25.22,0.34 23.58,0.33 22.14,0.40 20.71,0.48 19.30,0.52 17.89,0.57 16.60,0.92 15.30,1.28 14.21,1.54 13.11,1.79 11.76,1.74 10.41,1.70 9.25,1.67 8.08,1.65 6.98,1.63 5.89,1.60 4.21,1.93 2.52,2.26 1.52,2.43 0.52,2.60 0.20,2.62 -0.11,2.65 -0.43,2.60 -0.74,2.54 -1.04,2.42 -1.33,2.29 -1.59,2.10 -1.84,1.90 -2.04,1.65 -2.25,1.41 -2.38,1.12 -2.52,0.83 -2.58,0.51 -2.64,0.20 -2.63,-0.11 -2.61,-0.43 -2.52,-0.74 -2.43,-1.05 -2.27,-1.32 -2.11,-1.60 -1.89,-1.83 -1.67,-2.06 -1.40,-2.23 -1.12,-2.40 -0.82,-2.50 -0.52,-2.60 -0.52,-2.60 L -0.52,-2.60 Z"></path></g><g transform="translate(68.37151784379762 106.24351454007137) rotate(0 16.33012701582436 2.084697065849923)" stroke="none"><path fill="#e66000" d="M 0.62,-2.51 Q 0.62,-2.51 1.43,-2.35 2.24,-2.19 3.70,-1.77 5.16,-1.35 6.40,-0.36 7.63,0.62 8.88,0.76 10.13,0.90 11.59,0.88 13.05,0.86 14.25,0.83 15.44,0.79 17.03,0.76 18.62,0.72 20.02,0.46 21.42,0.20 22.51,-0.12 23.60,-0.44 25.08,-0.53 26.56,-0.63 27.82,-0.65 29.08,-0.66 30.60,-1.00 32.12,-1.34 32.68,-1.34 33.24,-1.33 33.77,-1.15 34.30,-0.97 34.75,-0.62 35.19,-0.28 35.51,0.18 35.82,0.65 35.96,1.19 36.11,1.73 36.07,2.29 36.04,2.85 35.83,3.37 35.62,3.89 35.25,4.32 34.88,4.74 34.40,5.03 33.92,5.31 33.37,5.43 32.82,5.55 32.26,5.48 31.70,5.42 31.19,5.18 30.69,4.94 30.28,4.55 29.88,4.16 29.62,3.66 29.36,3.16 29.27,2.61 29.18,2.05 29.28,1.50 29.37,0.95 29.64,0.45 29.91,-0.03 30.32,-0.42 30.73,-0.80 31.24,-1.03 31.75,-1.26 32.31,-1.32 32.87,-1.38 33.42,-1.25 33.96,-1.13 34.44,-0.83 34.92,-0.54 35.28,-0.11 35.64,0.31 35.85,0.84 36.05,1.36 36.08,1.92 36.10,2.48 35.95,3.02 35.80,3.56 35.48,4.02 35.16,4.49 34.71,4.82 34.26,5.16 33.72,5.33 33.19,5.51 33.19,5.51 33.19,5.51 31.18,5.87 29.17,6.23 27.95,6.24 26.72,6.24 25.52,6.31 24.31,6.37 22.71,6.74 21.10,7.10 19.88,7.35 18.66,7.61 17.05,7.57 15.44,7.54 14.23,7.50 13.02,7.46 11.41,7.39 9.81,7.32 7.90,6.89 5.99,6.46 4.83,5.42 3.68,4.38 2.31,3.69 0.94,2.99 0.16,2.75 -0.62,2.51 -0.92,2.40 -1.21,2.29 -1.46,2.11 -1.72,1.93 -1.93,1.70 -2.13,1.46 -2.28,1.18 -2.42,0.91 -2.50,0.60 -2.57,0.30 -2.57,-0.00 -2.57,-0.32 -2.49,-0.62 -2.42,-0.92 -2.27,-1.20 -2.12,-1.47 -1.92,-1.71 -1.71,-1.94 -1.45,-2.12 -1.19,-2.29 -0.90,-2.40 -0.61,-2.51 -0.30,-2.55 0.00,-2.59 0.31,-2.55 0.62,-2.51 0.62,-2.51 L 0.62,-2.51 Z"></path></g></svg>